<mxfile host="app.diagrams.net" agent="Mozilla/5.0 (Windows NT 10.0; Win64; x64) AppleWebKit/537.36 (KHTML, like Gecko) Chrome/134.0.0.0 Safari/537.36" version="26.1.3">
  <diagram name="Página-1" id="N8GGY91LnOwtlpb6x8aP">
    <mxGraphModel dx="2100" dy="1178" grid="1" gridSize="10" guides="1" tooltips="1" connect="1" arrows="1" fold="1" page="1" pageScale="1" pageWidth="4681" pageHeight="3300" math="0" shadow="0">
      <root>
        <mxCell id="0" />
        <mxCell id="1" parent="0" />
        <mxCell id="2Jk9JDgMPuvfBaP24XpU-87" style="edgeStyle=orthogonalEdgeStyle;rounded=0;orthogonalLoop=1;jettySize=auto;html=1;exitX=1;exitY=0;exitDx=0;exitDy=0;curved=1;" parent="1" source="2Jk9JDgMPuvfBaP24XpU-1" target="2Jk9JDgMPuvfBaP24XpU-5" edge="1">
          <mxGeometry relative="1" as="geometry" />
        </mxCell>
        <mxCell id="2Jk9JDgMPuvfBaP24XpU-88" value="(2, ε)" style="edgeLabel;html=1;align=center;verticalAlign=middle;resizable=0;points=[];" parent="2Jk9JDgMPuvfBaP24XpU-87" vertex="1" connectable="0">
          <mxGeometry x="0.0297" y="-21" relative="1" as="geometry">
            <mxPoint as="offset" />
          </mxGeometry>
        </mxCell>
        <mxCell id="2Jk9JDgMPuvfBaP24XpU-153" style="edgeStyle=orthogonalEdgeStyle;rounded=0;orthogonalLoop=1;jettySize=auto;html=1;exitX=0;exitY=1;exitDx=0;exitDy=0;curved=1;entryX=0.739;entryY=0.021;entryDx=0;entryDy=0;entryPerimeter=0;" parent="1" source="2Jk9JDgMPuvfBaP24XpU-1" target="2Jk9JDgMPuvfBaP24XpU-111" edge="1">
          <mxGeometry relative="1" as="geometry">
            <Array as="points">
              <mxPoint x="1480" y="831" />
              <mxPoint x="1480" y="940" />
              <mxPoint x="1050" y="940" />
              <mxPoint x="1050" y="970" />
              <mxPoint x="960" y="970" />
              <mxPoint x="960" y="971" />
            </Array>
          </mxGeometry>
        </mxCell>
        <mxCell id="2Jk9JDgMPuvfBaP24XpU-154" value="(00, a)" style="edgeLabel;html=1;align=center;verticalAlign=middle;resizable=0;points=[];" parent="2Jk9JDgMPuvfBaP24XpU-153" vertex="1" connectable="0">
          <mxGeometry x="-0.2265" y="-2" relative="1" as="geometry">
            <mxPoint x="38" y="-8" as="offset" />
          </mxGeometry>
        </mxCell>
        <mxCell id="pM1H2r0tlZUUlJDLP7UV-6" style="edgeStyle=orthogonalEdgeStyle;rounded=0;orthogonalLoop=1;jettySize=auto;html=1;exitX=0.07;exitY=0.218;exitDx=0;exitDy=0;entryX=0.637;entryY=0.934;entryDx=0;entryDy=0;curved=1;entryPerimeter=0;exitPerimeter=0;" parent="1" source="2Jk9JDgMPuvfBaP24XpU-1" target="2Jk9JDgMPuvfBaP24XpU-161" edge="1">
          <mxGeometry relative="1" as="geometry">
            <Array as="points">
              <mxPoint x="1524" y="790" />
              <mxPoint x="1490" y="790" />
              <mxPoint x="1490" y="460" />
              <mxPoint x="1258" y="460" />
            </Array>
          </mxGeometry>
        </mxCell>
        <mxCell id="pM1H2r0tlZUUlJDLP7UV-7" value="(00, b)" style="edgeLabel;html=1;align=center;verticalAlign=middle;resizable=0;points=[];" parent="pM1H2r0tlZUUlJDLP7UV-6" vertex="1" connectable="0">
          <mxGeometry x="0.3297" y="3" relative="1" as="geometry">
            <mxPoint x="12" y="27" as="offset" />
          </mxGeometry>
        </mxCell>
        <mxCell id="2Jk9JDgMPuvfBaP24XpU-1" value="&amp;lt;q10&amp;gt;" style="ellipse;whiteSpace=wrap;html=1;" parent="1" vertex="1">
          <mxGeometry x="1520" y="780" width="60" height="60" as="geometry" />
        </mxCell>
        <mxCell id="2Jk9JDgMPuvfBaP24XpU-2" value="&amp;lt;q11&amp;gt;" style="ellipse;whiteSpace=wrap;html=1;" parent="1" vertex="1">
          <mxGeometry x="1700" y="850" width="60" height="60" as="geometry" />
        </mxCell>
        <mxCell id="2Jk9JDgMPuvfBaP24XpU-64" style="edgeStyle=orthogonalEdgeStyle;rounded=0;orthogonalLoop=1;jettySize=auto;html=1;exitX=1;exitY=1;exitDx=0;exitDy=0;entryX=0.5;entryY=0;entryDx=0;entryDy=0;curved=1;" parent="1" source="2Jk9JDgMPuvfBaP24XpU-3" target="2Jk9JDgMPuvfBaP24XpU-7" edge="1">
          <mxGeometry relative="1" as="geometry" />
        </mxCell>
        <mxCell id="2Jk9JDgMPuvfBaP24XpU-65" value="(2, ε)" style="edgeLabel;html=1;align=center;verticalAlign=middle;resizable=0;points=[];" parent="2Jk9JDgMPuvfBaP24XpU-64" vertex="1" connectable="0">
          <mxGeometry x="-0.2459" y="-34" relative="1" as="geometry">
            <mxPoint as="offset" />
          </mxGeometry>
        </mxCell>
        <mxCell id="2Jk9JDgMPuvfBaP24XpU-3" value="&amp;lt;q0&amp;gt;" style="ellipse;whiteSpace=wrap;html=1;" parent="1" vertex="1">
          <mxGeometry x="50" y="110" width="60" height="60" as="geometry" />
        </mxCell>
        <mxCell id="2Jk9JDgMPuvfBaP24XpU-108" style="edgeStyle=orthogonalEdgeStyle;rounded=0;orthogonalLoop=1;jettySize=auto;html=1;exitX=0;exitY=1;exitDx=0;exitDy=0;entryX=0;entryY=1;entryDx=0;entryDy=0;curved=1;" parent="1" source="2Jk9JDgMPuvfBaP24XpU-4" target="2Jk9JDgMPuvfBaP24XpU-12" edge="1">
          <mxGeometry relative="1" as="geometry">
            <Array as="points">
              <mxPoint x="149" y="601" />
            </Array>
          </mxGeometry>
        </mxCell>
        <mxCell id="2Jk9JDgMPuvfBaP24XpU-110" value="(5, ε)" style="edgeLabel;html=1;align=center;verticalAlign=middle;resizable=0;points=[];" parent="2Jk9JDgMPuvfBaP24XpU-108" vertex="1" connectable="0">
          <mxGeometry x="-0.6946" y="51" relative="1" as="geometry">
            <mxPoint as="offset" />
          </mxGeometry>
        </mxCell>
        <mxCell id="2Jk9JDgMPuvfBaP24XpU-123" style="edgeStyle=orthogonalEdgeStyle;rounded=0;orthogonalLoop=1;jettySize=auto;html=1;exitX=0.345;exitY=1.004;exitDx=0;exitDy=0;entryX=0.305;entryY=1;entryDx=0;entryDy=0;curved=1;entryPerimeter=0;exitPerimeter=0;" parent="1" source="2Jk9JDgMPuvfBaP24XpU-4" target="2Jk9JDgMPuvfBaP24XpU-111" edge="1">
          <mxGeometry relative="1" as="geometry">
            <mxPoint x="160" y="300" as="sourcePoint" />
            <mxPoint x="921.54" y="1050.8999999999999" as="targetPoint" />
            <Array as="points">
              <mxPoint x="161" y="1090" />
              <mxPoint x="928" y="1090" />
            </Array>
          </mxGeometry>
        </mxCell>
        <mxCell id="2Jk9JDgMPuvfBaP24XpU-124" value="(5, a)" style="edgeLabel;html=1;align=center;verticalAlign=middle;resizable=0;points=[];" parent="2Jk9JDgMPuvfBaP24XpU-123" vertex="1" connectable="0">
          <mxGeometry x="0.2664" y="38" relative="1" as="geometry">
            <mxPoint as="offset" />
          </mxGeometry>
        </mxCell>
        <mxCell id="2Jk9JDgMPuvfBaP24XpU-4" value="&amp;lt;q1&amp;gt;" style="ellipse;whiteSpace=wrap;html=1;" parent="1" vertex="1">
          <mxGeometry x="140" y="220" width="60" height="60" as="geometry" />
        </mxCell>
        <mxCell id="pM1H2r0tlZUUlJDLP7UV-10" style="edgeStyle=orthogonalEdgeStyle;rounded=0;orthogonalLoop=1;jettySize=auto;html=1;exitX=0;exitY=0;exitDx=0;exitDy=0;entryX=0.969;entryY=0.704;entryDx=0;entryDy=0;entryPerimeter=0;curved=1;" parent="1" source="2Jk9JDgMPuvfBaP24XpU-5" target="2Jk9JDgMPuvfBaP24XpU-161" edge="1">
          <mxGeometry relative="1" as="geometry">
            <mxPoint x="1840" y="420" as="targetPoint" />
            <Array as="points">
              <mxPoint x="1860" y="909" />
              <mxPoint x="1860" y="422" />
            </Array>
          </mxGeometry>
        </mxCell>
        <mxCell id="pM1H2r0tlZUUlJDLP7UV-11" value="(00, b)" style="edgeLabel;html=1;align=center;verticalAlign=middle;resizable=0;points=[];" parent="pM1H2r0tlZUUlJDLP7UV-10" vertex="1" connectable="0">
          <mxGeometry x="-0.2162" y="91" relative="1" as="geometry">
            <mxPoint as="offset" />
          </mxGeometry>
        </mxCell>
        <mxCell id="8i7HvSjvM84CX9ySZkmt-48" style="edgeStyle=orthogonalEdgeStyle;rounded=0;orthogonalLoop=1;jettySize=auto;html=1;exitX=1;exitY=0.5;exitDx=0;exitDy=0;entryX=0.713;entryY=0.957;entryDx=0;entryDy=0;entryPerimeter=0;curved=1;" edge="1" parent="1" source="2Jk9JDgMPuvfBaP24XpU-5" target="8i7HvSjvM84CX9ySZkmt-1">
          <mxGeometry relative="1" as="geometry">
            <mxPoint x="1960" y="330" as="targetPoint" />
            <Array as="points">
              <mxPoint x="1970" y="930" />
              <mxPoint x="1970" y="270" />
              <mxPoint x="1723" y="270" />
            </Array>
          </mxGeometry>
        </mxCell>
        <mxCell id="8i7HvSjvM84CX9ySZkmt-49" value="(00,c)" style="edgeLabel;html=1;align=center;verticalAlign=middle;resizable=0;points=[];" vertex="1" connectable="0" parent="8i7HvSjvM84CX9ySZkmt-48">
          <mxGeometry x="0.2262" y="21" relative="1" as="geometry">
            <mxPoint as="offset" />
          </mxGeometry>
        </mxCell>
        <mxCell id="2Jk9JDgMPuvfBaP24XpU-5" value="&amp;lt;q12&amp;gt;" style="ellipse;whiteSpace=wrap;html=1;" parent="1" vertex="1">
          <mxGeometry x="1890" y="900" width="60" height="60" as="geometry" />
        </mxCell>
        <mxCell id="pM1H2r0tlZUUlJDLP7UV-1" style="edgeStyle=orthogonalEdgeStyle;rounded=0;orthogonalLoop=1;jettySize=auto;html=1;exitX=1;exitY=0;exitDx=0;exitDy=0;entryX=0;entryY=1;entryDx=0;entryDy=0;curved=1;" parent="1" source="2Jk9JDgMPuvfBaP24XpU-6" target="2Jk9JDgMPuvfBaP24XpU-161" edge="1">
          <mxGeometry relative="1" as="geometry">
            <Array as="points">
              <mxPoint x="1240" y="669" />
              <mxPoint x="1240" y="550" />
              <mxPoint x="1229" y="550" />
            </Array>
          </mxGeometry>
        </mxCell>
        <mxCell id="pM1H2r0tlZUUlJDLP7UV-2" value="(00, b)" style="edgeLabel;html=1;align=center;verticalAlign=middle;resizable=0;points=[];" parent="pM1H2r0tlZUUlJDLP7UV-1" vertex="1" connectable="0">
          <mxGeometry x="0.443" y="-1" relative="1" as="geometry">
            <mxPoint as="offset" />
          </mxGeometry>
        </mxCell>
        <mxCell id="2Jk9JDgMPuvfBaP24XpU-6" value="&amp;lt;q8&amp;gt;" style="ellipse;whiteSpace=wrap;html=1;" parent="1" vertex="1">
          <mxGeometry x="1160" y="660" width="60" height="60" as="geometry" />
        </mxCell>
        <mxCell id="2Jk9JDgMPuvfBaP24XpU-66" style="edgeStyle=orthogonalEdgeStyle;rounded=0;orthogonalLoop=1;jettySize=auto;html=1;exitX=0.967;exitY=0.333;exitDx=0;exitDy=0;entryX=0.5;entryY=0;entryDx=0;entryDy=0;curved=1;exitPerimeter=0;" parent="1" source="2Jk9JDgMPuvfBaP24XpU-7" target="2Jk9JDgMPuvfBaP24XpU-9" edge="1">
          <mxGeometry relative="1" as="geometry">
            <Array as="points">
              <mxPoint x="570" y="340" />
            </Array>
          </mxGeometry>
        </mxCell>
        <mxCell id="2Jk9JDgMPuvfBaP24XpU-68" value="(2, ε)" style="edgeLabel;html=1;align=center;verticalAlign=middle;resizable=0;points=[];" parent="2Jk9JDgMPuvfBaP24XpU-66" vertex="1" connectable="0">
          <mxGeometry x="-0.0387" y="-18" relative="1" as="geometry">
            <mxPoint as="offset" />
          </mxGeometry>
        </mxCell>
        <mxCell id="2Jk9JDgMPuvfBaP24XpU-180" style="edgeStyle=orthogonalEdgeStyle;rounded=0;orthogonalLoop=1;jettySize=auto;html=1;exitX=1;exitY=0;exitDx=0;exitDy=0;entryX=0.5;entryY=0;entryDx=0;entryDy=0;curved=1;" parent="1" source="2Jk9JDgMPuvfBaP24XpU-7" target="2Jk9JDgMPuvfBaP24XpU-161" edge="1">
          <mxGeometry relative="1" as="geometry">
            <mxPoint x="1140.0000576701823" y="340.0588235294117" as="targetPoint" />
          </mxGeometry>
        </mxCell>
        <mxCell id="2Jk9JDgMPuvfBaP24XpU-181" value="(5,b)" style="edgeLabel;html=1;align=center;verticalAlign=middle;resizable=0;points=[];" parent="2Jk9JDgMPuvfBaP24XpU-180" vertex="1" connectable="0">
          <mxGeometry x="-0.0029" y="-3" relative="1" as="geometry">
            <mxPoint as="offset" />
          </mxGeometry>
        </mxCell>
        <mxCell id="2Jk9JDgMPuvfBaP24XpU-7" value="&amp;lt;q2&amp;gt;" style="ellipse;whiteSpace=wrap;html=1;" parent="1" vertex="1">
          <mxGeometry x="250" y="320" width="60" height="60" as="geometry" />
        </mxCell>
        <mxCell id="2Jk9JDgMPuvfBaP24XpU-103" style="edgeStyle=orthogonalEdgeStyle;rounded=0;orthogonalLoop=1;jettySize=auto;html=1;exitX=0.5;exitY=1;exitDx=0;exitDy=0;entryX=0.5;entryY=1;entryDx=0;entryDy=0;curved=1;" parent="1" source="2Jk9JDgMPuvfBaP24XpU-8" target="2Jk9JDgMPuvfBaP24XpU-6" edge="1">
          <mxGeometry relative="1" as="geometry">
            <Array as="points">
              <mxPoint x="420" y="760" />
              <mxPoint x="1190" y="760" />
            </Array>
          </mxGeometry>
        </mxCell>
        <mxCell id="2Jk9JDgMPuvfBaP24XpU-105" value="(5, ε)" style="edgeLabel;html=1;align=center;verticalAlign=middle;resizable=0;points=[];" parent="2Jk9JDgMPuvfBaP24XpU-103" vertex="1" connectable="0">
          <mxGeometry x="-0.6149" y="81" relative="1" as="geometry">
            <mxPoint as="offset" />
          </mxGeometry>
        </mxCell>
        <mxCell id="2Jk9JDgMPuvfBaP24XpU-168" style="edgeStyle=orthogonalEdgeStyle;rounded=0;orthogonalLoop=1;jettySize=auto;html=1;exitX=0;exitY=1;exitDx=0;exitDy=0;entryX=0.049;entryY=0.569;entryDx=0;entryDy=0;entryPerimeter=0;curved=1;" parent="1" source="2Jk9JDgMPuvfBaP24XpU-8" target="2Jk9JDgMPuvfBaP24XpU-111" edge="1">
          <mxGeometry relative="1" as="geometry">
            <Array as="points">
              <mxPoint x="399" y="1004" />
            </Array>
          </mxGeometry>
        </mxCell>
        <mxCell id="2Jk9JDgMPuvfBaP24XpU-169" value="(5,a)" style="edgeLabel;html=1;align=center;verticalAlign=middle;resizable=0;points=[];" parent="2Jk9JDgMPuvfBaP24XpU-168" vertex="1" connectable="0">
          <mxGeometry x="-0.239" y="116" relative="1" as="geometry">
            <mxPoint as="offset" />
          </mxGeometry>
        </mxCell>
        <mxCell id="2Jk9JDgMPuvfBaP24XpU-177" style="edgeStyle=orthogonalEdgeStyle;rounded=0;orthogonalLoop=1;jettySize=auto;html=1;exitX=0.773;exitY=0.078;exitDx=0;exitDy=0;entryX=0.25;entryY=0.075;entryDx=0;entryDy=0;entryPerimeter=0;curved=1;exitPerimeter=0;" parent="1" source="2Jk9JDgMPuvfBaP24XpU-8" target="2Jk9JDgMPuvfBaP24XpU-161" edge="1">
          <mxGeometry relative="1" as="geometry">
            <Array as="points">
              <mxPoint x="436" y="380" />
              <mxPoint x="800" y="380" />
              <mxPoint x="800" y="360" />
              <mxPoint x="1235" y="360" />
            </Array>
          </mxGeometry>
        </mxCell>
        <mxCell id="2Jk9JDgMPuvfBaP24XpU-178" value="(5,b)" style="edgeLabel;html=1;align=center;verticalAlign=middle;resizable=0;points=[];" parent="2Jk9JDgMPuvfBaP24XpU-177" vertex="1" connectable="0">
          <mxGeometry x="0.0808" y="-1" relative="1" as="geometry">
            <mxPoint as="offset" />
          </mxGeometry>
        </mxCell>
        <mxCell id="8i7HvSjvM84CX9ySZkmt-9" style="edgeStyle=orthogonalEdgeStyle;rounded=0;orthogonalLoop=1;jettySize=auto;html=1;exitX=0.575;exitY=-0.005;exitDx=0;exitDy=0;exitPerimeter=0;entryX=0.5;entryY=0;entryDx=0;entryDy=0;curved=1;" edge="1" parent="1" source="2Jk9JDgMPuvfBaP24XpU-8" target="8i7HvSjvM84CX9ySZkmt-1">
          <mxGeometry relative="1" as="geometry">
            <mxPoint x="790" y="50" as="targetPoint" />
            <Array as="points">
              <mxPoint x="425" y="50" />
              <mxPoint x="1710" y="50" />
            </Array>
          </mxGeometry>
        </mxCell>
        <mxCell id="8i7HvSjvM84CX9ySZkmt-11" value="(5,c)" style="edgeLabel;html=1;align=center;verticalAlign=middle;resizable=0;points=[];" vertex="1" connectable="0" parent="8i7HvSjvM84CX9ySZkmt-9">
          <mxGeometry x="0.0324" y="2" relative="1" as="geometry">
            <mxPoint x="-1" as="offset" />
          </mxGeometry>
        </mxCell>
        <mxCell id="2Jk9JDgMPuvfBaP24XpU-8" value="&amp;lt;q3&amp;gt;" style="ellipse;whiteSpace=wrap;html=1;" parent="1" vertex="1">
          <mxGeometry x="390" y="380" width="60" height="60" as="geometry" />
        </mxCell>
        <mxCell id="2Jk9JDgMPuvfBaP24XpU-101" style="edgeStyle=orthogonalEdgeStyle;rounded=0;orthogonalLoop=1;jettySize=auto;html=1;exitX=0.5;exitY=1;exitDx=0;exitDy=0;entryX=0.5;entryY=1;entryDx=0;entryDy=0;curved=1;" parent="1" source="2Jk9JDgMPuvfBaP24XpU-9" target="2Jk9JDgMPuvfBaP24XpU-22" edge="1">
          <mxGeometry relative="1" as="geometry" />
        </mxCell>
        <mxCell id="2Jk9JDgMPuvfBaP24XpU-102" value="(5, ε)" style="edgeLabel;html=1;align=center;verticalAlign=middle;resizable=0;points=[];" parent="2Jk9JDgMPuvfBaP24XpU-101" vertex="1" connectable="0">
          <mxGeometry x="-0.3024" y="74" relative="1" as="geometry">
            <mxPoint as="offset" />
          </mxGeometry>
        </mxCell>
        <mxCell id="2Jk9JDgMPuvfBaP24XpU-119" style="edgeStyle=orthogonalEdgeStyle;rounded=0;orthogonalLoop=1;jettySize=auto;html=1;exitX=1;exitY=1;exitDx=0;exitDy=0;entryX=0.252;entryY=0.984;entryDx=0;entryDy=0;curved=1;entryPerimeter=0;" parent="1" source="2Jk9JDgMPuvfBaP24XpU-9" target="2Jk9JDgMPuvfBaP24XpU-111" edge="1">
          <mxGeometry relative="1" as="geometry">
            <Array as="points">
              <mxPoint x="590" y="491" />
              <mxPoint x="590" y="1030" />
              <mxPoint x="900" y="1030" />
              <mxPoint x="900" y="1029" />
            </Array>
          </mxGeometry>
        </mxCell>
        <mxCell id="2Jk9JDgMPuvfBaP24XpU-122" value="(2, a)" style="edgeLabel;html=1;align=center;verticalAlign=middle;resizable=0;points=[];" parent="2Jk9JDgMPuvfBaP24XpU-119" vertex="1" connectable="0">
          <mxGeometry x="0.5393" relative="1" as="geometry">
            <mxPoint x="-12" y="-10" as="offset" />
          </mxGeometry>
        </mxCell>
        <mxCell id="2Jk9JDgMPuvfBaP24XpU-9" value="&amp;lt;q4&amp;gt;" style="ellipse;whiteSpace=wrap;html=1;" parent="1" vertex="1">
          <mxGeometry x="540" y="440" width="60" height="60" as="geometry" />
        </mxCell>
        <mxCell id="2Jk9JDgMPuvfBaP24XpU-79" style="edgeStyle=orthogonalEdgeStyle;rounded=0;orthogonalLoop=1;jettySize=auto;html=1;exitX=0.972;exitY=0.319;exitDx=0;exitDy=0;curved=1;exitPerimeter=0;entryX=0.078;entryY=0.23;entryDx=0;entryDy=0;entryPerimeter=0;" parent="1" source="2Jk9JDgMPuvfBaP24XpU-10" target="2Jk9JDgMPuvfBaP24XpU-22" edge="1">
          <mxGeometry relative="1" as="geometry">
            <Array as="points">
              <mxPoint x="1140" y="619" />
              <mxPoint x="1140" y="550" />
              <mxPoint x="1280" y="550" />
              <mxPoint x="1280" y="724" />
              <mxPoint x="1330" y="724" />
            </Array>
            <mxPoint x="1350" y="700" as="targetPoint" />
          </mxGeometry>
        </mxCell>
        <mxCell id="2Jk9JDgMPuvfBaP24XpU-80" value="(2, ε)" style="edgeLabel;html=1;align=center;verticalAlign=middle;resizable=0;points=[];" parent="2Jk9JDgMPuvfBaP24XpU-79" vertex="1" connectable="0">
          <mxGeometry x="-0.1929" relative="1" as="geometry">
            <mxPoint as="offset" />
          </mxGeometry>
        </mxCell>
        <mxCell id="2Jk9JDgMPuvfBaP24XpU-146" style="edgeStyle=orthogonalEdgeStyle;rounded=0;orthogonalLoop=1;jettySize=auto;html=1;exitX=0;exitY=1;exitDx=0;exitDy=0;curved=1;entryX=0;entryY=0;entryDx=0;entryDy=0;" parent="1" source="2Jk9JDgMPuvfBaP24XpU-10" target="2Jk9JDgMPuvfBaP24XpU-111" edge="1">
          <mxGeometry relative="1" as="geometry" />
        </mxCell>
        <mxCell id="2Jk9JDgMPuvfBaP24XpU-147" value="(00, a)" style="edgeLabel;html=1;align=center;verticalAlign=middle;resizable=0;points=[];" parent="2Jk9JDgMPuvfBaP24XpU-146" vertex="1" connectable="0">
          <mxGeometry x="0.6457" y="-1" relative="1" as="geometry">
            <mxPoint as="offset" />
          </mxGeometry>
        </mxCell>
        <mxCell id="2Jk9JDgMPuvfBaP24XpU-162" style="edgeStyle=orthogonalEdgeStyle;rounded=0;orthogonalLoop=1;jettySize=auto;html=1;exitX=1;exitY=0;exitDx=0;exitDy=0;curved=1;" parent="1" source="2Jk9JDgMPuvfBaP24XpU-10" target="2Jk9JDgMPuvfBaP24XpU-161" edge="1">
          <mxGeometry relative="1" as="geometry">
            <Array as="points">
              <mxPoint x="1110" y="609" />
              <mxPoint x="1110" y="410" />
            </Array>
          </mxGeometry>
        </mxCell>
        <mxCell id="2Jk9JDgMPuvfBaP24XpU-163" value="(00, b)" style="edgeLabel;html=1;align=center;verticalAlign=middle;resizable=0;points=[];" parent="2Jk9JDgMPuvfBaP24XpU-162" vertex="1" connectable="0">
          <mxGeometry x="0.2249" y="-5" relative="1" as="geometry">
            <mxPoint as="offset" />
          </mxGeometry>
        </mxCell>
        <mxCell id="2Jk9JDgMPuvfBaP24XpU-10" value="&amp;lt;q7&amp;gt;" style="ellipse;whiteSpace=wrap;html=1;" parent="1" vertex="1">
          <mxGeometry x="990" y="600" width="60" height="60" as="geometry" />
        </mxCell>
        <mxCell id="2Jk9JDgMPuvfBaP24XpU-94" style="edgeStyle=orthogonalEdgeStyle;rounded=0;orthogonalLoop=1;jettySize=auto;html=1;exitX=0.5;exitY=1;exitDx=0;exitDy=0;entryX=0.5;entryY=1;entryDx=0;entryDy=0;curved=1;" parent="1" source="2Jk9JDgMPuvfBaP24XpU-11" target="2Jk9JDgMPuvfBaP24XpU-1" edge="1">
          <mxGeometry relative="1" as="geometry">
            <Array as="points">
              <mxPoint x="720" y="880" />
              <mxPoint x="1550" y="880" />
            </Array>
          </mxGeometry>
        </mxCell>
        <mxCell id="2Jk9JDgMPuvfBaP24XpU-95" value="(5, ε)" style="edgeLabel;html=1;align=center;verticalAlign=middle;resizable=0;points=[];" parent="2Jk9JDgMPuvfBaP24XpU-94" vertex="1" connectable="0">
          <mxGeometry x="-0.1836" y="45" relative="1" as="geometry">
            <mxPoint as="offset" />
          </mxGeometry>
        </mxCell>
        <mxCell id="2Jk9JDgMPuvfBaP24XpU-117" style="edgeStyle=orthogonalEdgeStyle;rounded=0;orthogonalLoop=1;jettySize=auto;html=1;exitX=0.682;exitY=0.942;exitDx=0;exitDy=0;entryX=0;entryY=1;entryDx=0;entryDy=0;curved=1;exitPerimeter=0;" parent="1" source="2Jk9JDgMPuvfBaP24XpU-11" target="2Jk9JDgMPuvfBaP24XpU-111" edge="1">
          <mxGeometry relative="1" as="geometry">
            <Array as="points">
              <mxPoint x="741" y="547" />
              <mxPoint x="741" y="1021" />
            </Array>
          </mxGeometry>
        </mxCell>
        <mxCell id="2Jk9JDgMPuvfBaP24XpU-118" value="(1, a)" style="edgeLabel;html=1;align=center;verticalAlign=middle;resizable=0;points=[];" parent="2Jk9JDgMPuvfBaP24XpU-117" vertex="1" connectable="0">
          <mxGeometry x="0.2487" y="64" relative="1" as="geometry">
            <mxPoint x="-15" y="10" as="offset" />
          </mxGeometry>
        </mxCell>
        <mxCell id="2Jk9JDgMPuvfBaP24XpU-166" style="edgeStyle=orthogonalEdgeStyle;rounded=0;orthogonalLoop=1;jettySize=auto;html=1;exitX=1;exitY=0.5;exitDx=0;exitDy=0;curved=1;" parent="1" source="2Jk9JDgMPuvfBaP24XpU-11" target="2Jk9JDgMPuvfBaP24XpU-161" edge="1">
          <mxGeometry relative="1" as="geometry">
            <Array as="points">
              <mxPoint x="780" y="520" />
              <mxPoint x="780" y="390" />
            </Array>
          </mxGeometry>
        </mxCell>
        <mxCell id="2Jk9JDgMPuvfBaP24XpU-167" value="(02, b)" style="edgeLabel;html=1;align=center;verticalAlign=middle;resizable=0;points=[];" parent="2Jk9JDgMPuvfBaP24XpU-166" vertex="1" connectable="0">
          <mxGeometry x="-0.0136" y="-12" relative="1" as="geometry">
            <mxPoint as="offset" />
          </mxGeometry>
        </mxCell>
        <mxCell id="2Jk9JDgMPuvfBaP24XpU-11" value="&amp;lt;q5&amp;gt;" style="ellipse;whiteSpace=wrap;html=1;" parent="1" vertex="1">
          <mxGeometry x="690" y="490" width="60" height="60" as="geometry" />
        </mxCell>
        <mxCell id="2Jk9JDgMPuvfBaP24XpU-57" style="edgeStyle=orthogonalEdgeStyle;rounded=0;orthogonalLoop=1;jettySize=auto;html=1;curved=1;exitX=0.381;exitY=0.06;exitDx=0;exitDy=0;exitPerimeter=0;" parent="1" target="2Jk9JDgMPuvfBaP24XpU-12" edge="1" source="2Jk9JDgMPuvfBaP24XpU-12">
          <mxGeometry relative="1" as="geometry">
            <mxPoint x="850.1967965644036" y="558.7867965644036" as="sourcePoint" />
            <mxPoint x="889.7700000000001" y="554.68" as="targetPoint" />
            <Array as="points">
              <mxPoint x="860" y="554" />
              <mxPoint x="860" y="500" />
              <mxPoint x="889" y="500" />
            </Array>
          </mxGeometry>
        </mxCell>
        <mxCell id="2Jk9JDgMPuvfBaP24XpU-60" value="(a, ε)" style="edgeLabel;html=1;align=center;verticalAlign=middle;resizable=0;points=[];" parent="2Jk9JDgMPuvfBaP24XpU-57" vertex="1" connectable="0">
          <mxGeometry x="0.0881" relative="1" as="geometry">
            <mxPoint x="-5" y="-7" as="offset" />
          </mxGeometry>
        </mxCell>
        <mxCell id="2Jk9JDgMPuvfBaP24XpU-61" value="(a, ε),(b, ε)" style="edgeLabel;html=1;align=center;verticalAlign=middle;resizable=0;points=[];" parent="2Jk9JDgMPuvfBaP24XpU-57" vertex="1" connectable="0">
          <mxGeometry x="0.0881" relative="1" as="geometry">
            <mxPoint x="145" y="35" as="offset" />
          </mxGeometry>
        </mxCell>
        <mxCell id="2Jk9JDgMPuvfBaP24XpU-62" value="(a, ε),(b, ε)&lt;div&gt;(c, ε)&lt;/div&gt;" style="edgeLabel;html=1;align=center;verticalAlign=middle;resizable=0;points=[];" parent="2Jk9JDgMPuvfBaP24XpU-57" vertex="1" connectable="0">
          <mxGeometry x="0.0881" relative="1" as="geometry">
            <mxPoint x="315" y="88" as="offset" />
          </mxGeometry>
        </mxCell>
        <mxCell id="2Jk9JDgMPuvfBaP24XpU-112" style="edgeStyle=orthogonalEdgeStyle;rounded=0;orthogonalLoop=1;jettySize=auto;html=1;curved=1;entryX=0;entryY=0.333;entryDx=0;entryDy=0;exitX=0.312;exitY=0.906;exitDx=0;exitDy=0;exitPerimeter=0;entryPerimeter=0;" parent="1" source="2Jk9JDgMPuvfBaP24XpU-12" target="2Jk9JDgMPuvfBaP24XpU-111" edge="1">
          <mxGeometry relative="1" as="geometry">
            <mxPoint x="860" y="620" as="sourcePoint" />
            <Array as="points">
              <mxPoint x="850" y="604" />
              <mxPoint x="850" y="990" />
            </Array>
          </mxGeometry>
        </mxCell>
        <mxCell id="2Jk9JDgMPuvfBaP24XpU-115" value="(00, a)" style="edgeLabel;html=1;align=center;verticalAlign=middle;resizable=0;points=[];" parent="2Jk9JDgMPuvfBaP24XpU-112" vertex="1" connectable="0">
          <mxGeometry x="0.6035" y="19" relative="1" as="geometry">
            <mxPoint x="-9" y="-21" as="offset" />
          </mxGeometry>
        </mxCell>
        <mxCell id="2Jk9JDgMPuvfBaP24XpU-12" value="&amp;lt;q6&amp;gt;" style="ellipse;whiteSpace=wrap;html=1;" parent="1" vertex="1">
          <mxGeometry x="840" y="550" width="60" height="60" as="geometry" />
        </mxCell>
        <mxCell id="2Jk9JDgMPuvfBaP24XpU-21" value="&amp;lt;aft&amp;gt;" style="ellipse;shape=doubleEllipse;whiteSpace=wrap;html=1;aspect=fixed;" parent="1" vertex="1">
          <mxGeometry x="1150" y="1030" width="80" height="80" as="geometry" />
        </mxCell>
        <mxCell id="2Jk9JDgMPuvfBaP24XpU-85" style="edgeStyle=orthogonalEdgeStyle;rounded=0;orthogonalLoop=1;jettySize=auto;html=1;exitX=1;exitY=0.5;exitDx=0;exitDy=0;curved=1;entryX=0.167;entryY=0.167;entryDx=0;entryDy=0;entryPerimeter=0;" parent="1" source="2Jk9JDgMPuvfBaP24XpU-22" target="2Jk9JDgMPuvfBaP24XpU-2" edge="1">
          <mxGeometry relative="1" as="geometry">
            <Array as="points">
              <mxPoint x="1680" y="740" />
              <mxPoint x="1680" y="860" />
            </Array>
            <mxPoint x="1690" y="840" as="targetPoint" />
          </mxGeometry>
        </mxCell>
        <mxCell id="2Jk9JDgMPuvfBaP24XpU-86" value="(2, ε)" style="edgeLabel;html=1;align=center;verticalAlign=middle;resizable=0;points=[];" parent="2Jk9JDgMPuvfBaP24XpU-85" vertex="1" connectable="0">
          <mxGeometry x="-0.1881" y="-13" relative="1" as="geometry">
            <mxPoint x="42" y="7" as="offset" />
          </mxGeometry>
        </mxCell>
        <mxCell id="2Jk9JDgMPuvfBaP24XpU-151" style="edgeStyle=orthogonalEdgeStyle;rounded=0;orthogonalLoop=1;jettySize=auto;html=1;exitX=0;exitY=1;exitDx=0;exitDy=0;curved=1;entryX=0.645;entryY=-0.016;entryDx=0;entryDy=0;entryPerimeter=0;" parent="1" source="2Jk9JDgMPuvfBaP24XpU-22" target="2Jk9JDgMPuvfBaP24XpU-111" edge="1">
          <mxGeometry relative="1" as="geometry">
            <mxPoint x="955" y="975" as="targetPoint" />
            <Array as="points">
              <mxPoint x="1349" y="830" />
              <mxPoint x="949" y="830" />
            </Array>
          </mxGeometry>
        </mxCell>
        <mxCell id="2Jk9JDgMPuvfBaP24XpU-152" value="(00, a)" style="edgeLabel;html=1;align=center;verticalAlign=middle;resizable=0;points=[];" parent="2Jk9JDgMPuvfBaP24XpU-151" vertex="1" connectable="0">
          <mxGeometry x="0.7595" y="15" relative="1" as="geometry">
            <mxPoint x="236" y="-66" as="offset" />
          </mxGeometry>
        </mxCell>
        <mxCell id="2Jk9JDgMPuvfBaP24XpU-22" value="&amp;lt;q9&amp;gt;" style="ellipse;whiteSpace=wrap;html=1;" parent="1" vertex="1">
          <mxGeometry x="1340" y="710" width="60" height="60" as="geometry" />
        </mxCell>
        <mxCell id="2Jk9JDgMPuvfBaP24XpU-25" value="" style="curved=1;endArrow=classic;html=1;rounded=0;exitX=0.5;exitY=1;exitDx=0;exitDy=0;entryX=0.254;entryY=0.039;entryDx=0;entryDy=0;entryPerimeter=0;" parent="1" source="2Jk9JDgMPuvfBaP24XpU-3" target="2Jk9JDgMPuvfBaP24XpU-4" edge="1">
          <mxGeometry width="50" height="50" relative="1" as="geometry">
            <mxPoint x="163.13069935778162" y="159.9977950620857" as="sourcePoint" />
            <mxPoint x="170" y="210" as="targetPoint" />
            <Array as="points">
              <mxPoint x="80" y="200" />
              <mxPoint x="140" y="220" />
            </Array>
          </mxGeometry>
        </mxCell>
        <mxCell id="2Jk9JDgMPuvfBaP24XpU-26" value="(1, ε)" style="edgeLabel;html=1;align=center;verticalAlign=middle;resizable=0;points=[];" parent="2Jk9JDgMPuvfBaP24XpU-25" vertex="1" connectable="0">
          <mxGeometry x="-0.5968" y="-2" relative="1" as="geometry">
            <mxPoint x="22" y="8" as="offset" />
          </mxGeometry>
        </mxCell>
        <mxCell id="2Jk9JDgMPuvfBaP24XpU-30" value="" style="curved=1;endArrow=classic;html=1;rounded=0;entryX=0;entryY=0;entryDx=0;entryDy=0;" parent="1" source="2Jk9JDgMPuvfBaP24XpU-4" target="2Jk9JDgMPuvfBaP24XpU-7" edge="1">
          <mxGeometry width="50" height="50" relative="1" as="geometry">
            <mxPoint x="209" y="280" as="sourcePoint" />
            <mxPoint x="240" y="380" as="targetPoint" />
            <Array as="points">
              <mxPoint x="190" y="329" />
            </Array>
          </mxGeometry>
        </mxCell>
        <mxCell id="2Jk9JDgMPuvfBaP24XpU-31" value="(1, ε)" style="edgeLabel;html=1;align=center;verticalAlign=middle;resizable=0;points=[];" parent="2Jk9JDgMPuvfBaP24XpU-30" vertex="1" connectable="0">
          <mxGeometry x="-0.5968" y="-2" relative="1" as="geometry">
            <mxPoint x="9" y="7" as="offset" />
          </mxGeometry>
        </mxCell>
        <mxCell id="2Jk9JDgMPuvfBaP24XpU-32" value="" style="curved=1;endArrow=classic;html=1;rounded=0;exitX=0.921;exitY=0.737;exitDx=0;exitDy=0;exitPerimeter=0;" parent="1" source="2Jk9JDgMPuvfBaP24XpU-7" target="2Jk9JDgMPuvfBaP24XpU-8" edge="1">
          <mxGeometry width="50" height="50" relative="1" as="geometry">
            <mxPoint x="308" y="370" as="sourcePoint" />
            <mxPoint x="390" y="420" as="targetPoint" />
            <Array as="points">
              <mxPoint x="321" y="420" />
            </Array>
          </mxGeometry>
        </mxCell>
        <mxCell id="2Jk9JDgMPuvfBaP24XpU-33" value="(1, ε)" style="edgeLabel;html=1;align=center;verticalAlign=middle;resizable=0;points=[];" parent="2Jk9JDgMPuvfBaP24XpU-32" vertex="1" connectable="0">
          <mxGeometry x="-0.5968" y="-2" relative="1" as="geometry">
            <mxPoint x="20" y="10" as="offset" />
          </mxGeometry>
        </mxCell>
        <mxCell id="2Jk9JDgMPuvfBaP24XpU-34" value="" style="endArrow=classic;html=1;rounded=0;entryX=1;entryY=0.5;entryDx=0;entryDy=0;" parent="1" target="2Jk9JDgMPuvfBaP24XpU-3" edge="1">
          <mxGeometry width="50" height="50" relative="1" as="geometry">
            <mxPoint x="150" y="140" as="sourcePoint" />
            <mxPoint x="220" y="120" as="targetPoint" />
          </mxGeometry>
        </mxCell>
        <mxCell id="2Jk9JDgMPuvfBaP24XpU-35" value="" style="curved=1;endArrow=classic;html=1;rounded=0;exitX=0.952;exitY=0.633;exitDx=0;exitDy=0;exitPerimeter=0;entryX=0;entryY=0.5;entryDx=0;entryDy=0;" parent="1" source="2Jk9JDgMPuvfBaP24XpU-8" target="2Jk9JDgMPuvfBaP24XpU-9" edge="1">
          <mxGeometry width="50" height="50" relative="1" as="geometry">
            <mxPoint x="450" y="424" as="sourcePoint" />
            <mxPoint x="535" y="473" as="targetPoint" />
            <Array as="points">
              <mxPoint x="466" y="480" />
            </Array>
          </mxGeometry>
        </mxCell>
        <mxCell id="2Jk9JDgMPuvfBaP24XpU-36" value="(1, ε)" style="edgeLabel;html=1;align=center;verticalAlign=middle;resizable=0;points=[];" parent="2Jk9JDgMPuvfBaP24XpU-35" vertex="1" connectable="0">
          <mxGeometry x="-0.5968" y="-2" relative="1" as="geometry">
            <mxPoint x="20" y="10" as="offset" />
          </mxGeometry>
        </mxCell>
        <mxCell id="2Jk9JDgMPuvfBaP24XpU-39" value="" style="curved=1;endArrow=classic;html=1;rounded=0;exitX=0.952;exitY=0.633;exitDx=0;exitDy=0;exitPerimeter=0;entryX=0.015;entryY=0.591;entryDx=0;entryDy=0;entryPerimeter=0;" parent="1" target="2Jk9JDgMPuvfBaP24XpU-11" edge="1">
          <mxGeometry width="50" height="50" relative="1" as="geometry">
            <mxPoint x="600" y="470" as="sourcePoint" />
            <mxPoint x="680" y="530" as="targetPoint" />
            <Array as="points">
              <mxPoint x="619" y="532" />
            </Array>
          </mxGeometry>
        </mxCell>
        <mxCell id="2Jk9JDgMPuvfBaP24XpU-40" value="(1, ε)" style="edgeLabel;html=1;align=center;verticalAlign=middle;resizable=0;points=[];" parent="2Jk9JDgMPuvfBaP24XpU-39" vertex="1" connectable="0">
          <mxGeometry x="-0.5968" y="-2" relative="1" as="geometry">
            <mxPoint x="20" y="10" as="offset" />
          </mxGeometry>
        </mxCell>
        <mxCell id="2Jk9JDgMPuvfBaP24XpU-41" value="" style="curved=1;endArrow=classic;html=1;rounded=0;entryX=0;entryY=0.5;entryDx=0;entryDy=0;exitX=0.957;exitY=0.683;exitDx=0;exitDy=0;exitPerimeter=0;" parent="1" source="2Jk9JDgMPuvfBaP24XpU-11" target="2Jk9JDgMPuvfBaP24XpU-12" edge="1">
          <mxGeometry width="50" height="50" relative="1" as="geometry">
            <mxPoint x="760" y="530" as="sourcePoint" />
            <mxPoint x="841" y="585" as="targetPoint" />
            <Array as="points">
              <mxPoint x="769" y="592" />
            </Array>
          </mxGeometry>
        </mxCell>
        <mxCell id="2Jk9JDgMPuvfBaP24XpU-42" value="(1, ε)" style="edgeLabel;html=1;align=center;verticalAlign=middle;resizable=0;points=[];" parent="2Jk9JDgMPuvfBaP24XpU-41" vertex="1" connectable="0">
          <mxGeometry x="-0.5968" y="-2" relative="1" as="geometry">
            <mxPoint x="20" y="10" as="offset" />
          </mxGeometry>
        </mxCell>
        <mxCell id="2Jk9JDgMPuvfBaP24XpU-43" value="" style="curved=1;endArrow=classic;html=1;rounded=0;exitX=0.975;exitY=0.66;exitDx=0;exitDy=0;exitPerimeter=0;entryX=0.038;entryY=0.666;entryDx=0;entryDy=0;entryPerimeter=0;" parent="1" source="2Jk9JDgMPuvfBaP24XpU-12" target="2Jk9JDgMPuvfBaP24XpU-10" edge="1">
          <mxGeometry width="50" height="50" relative="1" as="geometry">
            <mxPoint x="910" y="590" as="sourcePoint" />
            <mxPoint x="990" y="640" as="targetPoint" />
            <Array as="points">
              <mxPoint x="922" y="651" />
            </Array>
          </mxGeometry>
        </mxCell>
        <mxCell id="2Jk9JDgMPuvfBaP24XpU-44" value="(1, ε)" style="edgeLabel;html=1;align=center;verticalAlign=middle;resizable=0;points=[];" parent="2Jk9JDgMPuvfBaP24XpU-43" vertex="1" connectable="0">
          <mxGeometry x="-0.5968" y="-2" relative="1" as="geometry">
            <mxPoint x="20" y="10" as="offset" />
          </mxGeometry>
        </mxCell>
        <mxCell id="2Jk9JDgMPuvfBaP24XpU-46" value="" style="curved=1;endArrow=classic;html=1;rounded=0;entryX=0;entryY=0.5;entryDx=0;entryDy=0;exitX=0.971;exitY=0.595;exitDx=0;exitDy=0;exitPerimeter=0;" parent="1" source="2Jk9JDgMPuvfBaP24XpU-10" target="2Jk9JDgMPuvfBaP24XpU-6" edge="1">
          <mxGeometry width="50" height="50" relative="1" as="geometry">
            <mxPoint x="1060" y="640" as="sourcePoint" />
            <mxPoint x="1143" y="689" as="targetPoint" />
            <Array as="points">
              <mxPoint x="1073" y="700" />
            </Array>
          </mxGeometry>
        </mxCell>
        <mxCell id="2Jk9JDgMPuvfBaP24XpU-47" value="(1, ε)" style="edgeLabel;html=1;align=center;verticalAlign=middle;resizable=0;points=[];" parent="2Jk9JDgMPuvfBaP24XpU-46" vertex="1" connectable="0">
          <mxGeometry x="-0.5968" y="-2" relative="1" as="geometry">
            <mxPoint x="20" y="10" as="offset" />
          </mxGeometry>
        </mxCell>
        <mxCell id="2Jk9JDgMPuvfBaP24XpU-48" value="" style="curved=1;endArrow=classic;html=1;rounded=0;exitX=1;exitY=1;exitDx=0;exitDy=0;entryX=0;entryY=0.5;entryDx=0;entryDy=0;" parent="1" source="2Jk9JDgMPuvfBaP24XpU-22" target="2Jk9JDgMPuvfBaP24XpU-1" edge="1">
          <mxGeometry width="50" height="50" relative="1" as="geometry">
            <mxPoint x="1410" y="759" as="sourcePoint" />
            <mxPoint x="1520" y="810" as="targetPoint" />
            <Array as="points">
              <mxPoint x="1433" y="820" />
            </Array>
          </mxGeometry>
        </mxCell>
        <mxCell id="2Jk9JDgMPuvfBaP24XpU-49" value="(1, ε)" style="edgeLabel;html=1;align=center;verticalAlign=middle;resizable=0;points=[];" parent="2Jk9JDgMPuvfBaP24XpU-48" vertex="1" connectable="0">
          <mxGeometry x="-0.5968" y="-2" relative="1" as="geometry">
            <mxPoint x="20" y="10" as="offset" />
          </mxGeometry>
        </mxCell>
        <mxCell id="2Jk9JDgMPuvfBaP24XpU-50" value="" style="curved=1;endArrow=classic;html=1;rounded=0;exitX=1.005;exitY=0.643;exitDx=0;exitDy=0;exitPerimeter=0;entryX=0;entryY=0.5;entryDx=0;entryDy=0;" parent="1" source="2Jk9JDgMPuvfBaP24XpU-6" target="2Jk9JDgMPuvfBaP24XpU-22" edge="1">
          <mxGeometry width="50" height="50" relative="1" as="geometry">
            <mxPoint x="1220" y="690" as="sourcePoint" />
            <mxPoint x="1330" y="741" as="targetPoint" />
            <Array as="points">
              <mxPoint x="1243" y="751" />
            </Array>
          </mxGeometry>
        </mxCell>
        <mxCell id="2Jk9JDgMPuvfBaP24XpU-51" value="(1, ε)" style="edgeLabel;html=1;align=center;verticalAlign=middle;resizable=0;points=[];" parent="2Jk9JDgMPuvfBaP24XpU-50" vertex="1" connectable="0">
          <mxGeometry x="-0.5968" y="-2" relative="1" as="geometry">
            <mxPoint x="20" y="10" as="offset" />
          </mxGeometry>
        </mxCell>
        <mxCell id="2Jk9JDgMPuvfBaP24XpU-52" value="" style="curved=1;endArrow=classic;html=1;rounded=0;exitX=1.006;exitY=0.617;exitDx=0;exitDy=0;exitPerimeter=0;entryX=0;entryY=0.5;entryDx=0;entryDy=0;" parent="1" source="2Jk9JDgMPuvfBaP24XpU-1" target="2Jk9JDgMPuvfBaP24XpU-2" edge="1">
          <mxGeometry width="50" height="50" relative="1" as="geometry">
            <mxPoint x="1590" y="820" as="sourcePoint" />
            <mxPoint x="1680" y="880" as="targetPoint" />
            <Array as="points">
              <mxPoint x="1613" y="900" />
            </Array>
          </mxGeometry>
        </mxCell>
        <mxCell id="2Jk9JDgMPuvfBaP24XpU-53" value="(1, ε)" style="edgeLabel;html=1;align=center;verticalAlign=middle;resizable=0;points=[];" parent="2Jk9JDgMPuvfBaP24XpU-52" vertex="1" connectable="0">
          <mxGeometry x="-0.5968" y="-2" relative="1" as="geometry">
            <mxPoint x="20" y="10" as="offset" />
          </mxGeometry>
        </mxCell>
        <mxCell id="2Jk9JDgMPuvfBaP24XpU-54" value="" style="curved=1;endArrow=classic;html=1;rounded=0;exitX=1;exitY=0.5;exitDx=0;exitDy=0;entryX=0;entryY=0.5;entryDx=0;entryDy=0;" parent="1" source="2Jk9JDgMPuvfBaP24XpU-2" target="2Jk9JDgMPuvfBaP24XpU-5" edge="1">
          <mxGeometry width="50" height="50" relative="1" as="geometry">
            <mxPoint x="1770" y="900" as="sourcePoint" />
            <mxPoint x="1880" y="940" as="targetPoint" />
            <Array as="points">
              <mxPoint x="1803" y="980" />
            </Array>
          </mxGeometry>
        </mxCell>
        <mxCell id="2Jk9JDgMPuvfBaP24XpU-55" value="(1, ε)" style="edgeLabel;html=1;align=center;verticalAlign=middle;resizable=0;points=[];" parent="2Jk9JDgMPuvfBaP24XpU-54" vertex="1" connectable="0">
          <mxGeometry x="-0.5968" y="-2" relative="1" as="geometry">
            <mxPoint x="20" y="10" as="offset" />
          </mxGeometry>
        </mxCell>
        <mxCell id="2Jk9JDgMPuvfBaP24XpU-58" style="edgeStyle=orthogonalEdgeStyle;rounded=0;orthogonalLoop=1;jettySize=auto;html=1;curved=1;exitX=0.366;exitY=0.042;exitDx=0;exitDy=0;exitPerimeter=0;" parent="1" source="2Jk9JDgMPuvfBaP24XpU-6" target="2Jk9JDgMPuvfBaP24XpU-6" edge="1">
          <mxGeometry relative="1" as="geometry">
            <mxPoint x="1170.1967965644037" y="659.9967965644037" as="sourcePoint" />
            <mxPoint x="1209.7700000000002" y="655.89" as="targetPoint" />
            <Array as="points">
              <mxPoint x="1182" y="601" />
              <mxPoint x="1210" y="601" />
            </Array>
          </mxGeometry>
        </mxCell>
        <mxCell id="2Jk9JDgMPuvfBaP24XpU-59" style="edgeStyle=orthogonalEdgeStyle;rounded=0;orthogonalLoop=1;jettySize=auto;html=1;curved=1;exitX=0.38;exitY=0.008;exitDx=0;exitDy=0;exitPerimeter=0;" parent="1" source="2Jk9JDgMPuvfBaP24XpU-10" target="2Jk9JDgMPuvfBaP24XpU-10" edge="1">
          <mxGeometry relative="1" as="geometry">
            <mxPoint x="1000.1967965644035" y="599.9967965644037" as="sourcePoint" />
            <mxPoint x="1039.77" y="595.89" as="targetPoint" />
            <Array as="points">
              <mxPoint x="1010" y="600" />
              <mxPoint x="1010" y="541" />
              <mxPoint x="1040" y="541" />
            </Array>
          </mxGeometry>
        </mxCell>
        <mxCell id="2Jk9JDgMPuvfBaP24XpU-69" style="edgeStyle=orthogonalEdgeStyle;rounded=0;orthogonalLoop=1;jettySize=auto;html=1;exitX=1;exitY=0;exitDx=0;exitDy=0;entryX=0.408;entryY=-0.008;entryDx=0;entryDy=0;entryPerimeter=0;curved=1;" parent="1" source="2Jk9JDgMPuvfBaP24XpU-4" target="2Jk9JDgMPuvfBaP24XpU-8" edge="1">
          <mxGeometry relative="1" as="geometry" />
        </mxCell>
        <mxCell id="2Jk9JDgMPuvfBaP24XpU-70" value="(2, ε)" style="edgeLabel;html=1;align=center;verticalAlign=middle;resizable=0;points=[];" parent="2Jk9JDgMPuvfBaP24XpU-69" vertex="1" connectable="0">
          <mxGeometry x="-0.207" y="-24" relative="1" as="geometry">
            <mxPoint as="offset" />
          </mxGeometry>
        </mxCell>
        <mxCell id="2Jk9JDgMPuvfBaP24XpU-71" style="edgeStyle=orthogonalEdgeStyle;rounded=0;orthogonalLoop=1;jettySize=auto;html=1;exitX=1;exitY=0;exitDx=0;exitDy=0;curved=1;" parent="1" source="2Jk9JDgMPuvfBaP24XpU-8" target="2Jk9JDgMPuvfBaP24XpU-11" edge="1">
          <mxGeometry relative="1" as="geometry" />
        </mxCell>
        <mxCell id="2Jk9JDgMPuvfBaP24XpU-72" value="(2, ε)" style="edgeLabel;html=1;align=center;verticalAlign=middle;resizable=0;points=[];" parent="2Jk9JDgMPuvfBaP24XpU-71" vertex="1" connectable="0">
          <mxGeometry x="-0.1366" y="-11" relative="1" as="geometry">
            <mxPoint as="offset" />
          </mxGeometry>
        </mxCell>
        <mxCell id="2Jk9JDgMPuvfBaP24XpU-73" style="edgeStyle=orthogonalEdgeStyle;rounded=0;orthogonalLoop=1;jettySize=auto;html=1;exitX=1;exitY=0;exitDx=0;exitDy=0;entryX=0.067;entryY=0.292;entryDx=0;entryDy=0;entryPerimeter=0;curved=1;" parent="1" source="2Jk9JDgMPuvfBaP24XpU-9" target="2Jk9JDgMPuvfBaP24XpU-12" edge="1">
          <mxGeometry relative="1" as="geometry">
            <Array as="points">
              <mxPoint x="810" y="449" />
              <mxPoint x="810" y="568" />
            </Array>
          </mxGeometry>
        </mxCell>
        <mxCell id="2Jk9JDgMPuvfBaP24XpU-74" value="(2, ε)" style="edgeLabel;html=1;align=center;verticalAlign=middle;resizable=0;points=[];" parent="2Jk9JDgMPuvfBaP24XpU-73" vertex="1" connectable="0">
          <mxGeometry x="-0.1814" y="-14" relative="1" as="geometry">
            <mxPoint as="offset" />
          </mxGeometry>
        </mxCell>
        <mxCell id="2Jk9JDgMPuvfBaP24XpU-75" style="edgeStyle=orthogonalEdgeStyle;rounded=0;orthogonalLoop=1;jettySize=auto;html=1;exitX=1;exitY=0;exitDx=0;exitDy=0;entryX=0.042;entryY=0.208;entryDx=0;entryDy=0;entryPerimeter=0;curved=1;" parent="1" source="2Jk9JDgMPuvfBaP24XpU-11" target="2Jk9JDgMPuvfBaP24XpU-10" edge="1">
          <mxGeometry relative="1" as="geometry">
            <Array as="points">
              <mxPoint x="741" y="470" />
              <mxPoint x="930" y="470" />
              <mxPoint x="930" y="613" />
            </Array>
          </mxGeometry>
        </mxCell>
        <mxCell id="2Jk9JDgMPuvfBaP24XpU-76" value="(2, ε)" style="edgeLabel;html=1;align=center;verticalAlign=middle;resizable=0;points=[];" parent="2Jk9JDgMPuvfBaP24XpU-75" vertex="1" connectable="0">
          <mxGeometry x="0.1602" y="-14" relative="1" as="geometry">
            <mxPoint x="-96" y="-28" as="offset" />
          </mxGeometry>
        </mxCell>
        <mxCell id="2Jk9JDgMPuvfBaP24XpU-77" style="edgeStyle=orthogonalEdgeStyle;rounded=0;orthogonalLoop=1;jettySize=auto;html=1;exitX=1;exitY=0.5;exitDx=0;exitDy=0;entryX=0.032;entryY=0.305;entryDx=0;entryDy=0;entryPerimeter=0;curved=1;" parent="1" source="2Jk9JDgMPuvfBaP24XpU-12" target="2Jk9JDgMPuvfBaP24XpU-6" edge="1">
          <mxGeometry relative="1" as="geometry">
            <Array as="points">
              <mxPoint x="960" y="580" />
              <mxPoint x="960" y="500" />
              <mxPoint x="1090" y="500" />
              <mxPoint x="1090" y="678" />
            </Array>
          </mxGeometry>
        </mxCell>
        <mxCell id="2Jk9JDgMPuvfBaP24XpU-78" value="(2, ε)" style="edgeLabel;html=1;align=center;verticalAlign=middle;resizable=0;points=[];" parent="2Jk9JDgMPuvfBaP24XpU-77" vertex="1" connectable="0">
          <mxGeometry x="-0.2385" y="-2" relative="1" as="geometry">
            <mxPoint as="offset" />
          </mxGeometry>
        </mxCell>
        <mxCell id="2Jk9JDgMPuvfBaP24XpU-81" style="edgeStyle=orthogonalEdgeStyle;rounded=0;orthogonalLoop=1;jettySize=auto;html=1;exitX=1.028;exitY=0.34;exitDx=0;exitDy=0;entryX=0.037;entryY=0.338;entryDx=0;entryDy=0;entryPerimeter=0;curved=1;exitPerimeter=0;" parent="1" source="2Jk9JDgMPuvfBaP24XpU-6" target="2Jk9JDgMPuvfBaP24XpU-1" edge="1">
          <mxGeometry relative="1" as="geometry">
            <Array as="points">
              <mxPoint x="1460" y="680" />
              <mxPoint x="1460" y="800" />
            </Array>
          </mxGeometry>
        </mxCell>
        <mxCell id="2Jk9JDgMPuvfBaP24XpU-82" value="(2, ε)" style="edgeLabel;html=1;align=center;verticalAlign=middle;resizable=0;points=[];" parent="2Jk9JDgMPuvfBaP24XpU-81" vertex="1" connectable="0">
          <mxGeometry x="0.2158" y="-5" relative="1" as="geometry">
            <mxPoint y="14" as="offset" />
          </mxGeometry>
        </mxCell>
        <mxCell id="2Jk9JDgMPuvfBaP24XpU-90" style="edgeStyle=orthogonalEdgeStyle;rounded=0;orthogonalLoop=1;jettySize=auto;html=1;exitX=0;exitY=1;exitDx=0;exitDy=0;curved=1;" parent="1" source="2Jk9JDgMPuvfBaP24XpU-3" edge="1">
          <mxGeometry relative="1" as="geometry">
            <mxPoint x="710" y="550" as="targetPoint" />
            <Array as="points">
              <mxPoint x="60" y="161" />
              <mxPoint x="60" y="610" />
              <mxPoint x="710" y="610" />
            </Array>
          </mxGeometry>
        </mxCell>
        <mxCell id="2Jk9JDgMPuvfBaP24XpU-91" value="&lt;span style=&quot;font-size: 11px; background-color: rgb(255, 255, 255);&quot;&gt;(5, ε)&lt;/span&gt;" style="text;html=1;align=center;verticalAlign=middle;resizable=0;points=[];autosize=1;strokeColor=none;fillColor=none;" parent="1" vertex="1">
          <mxGeometry x="95" y="498" width="50" height="30" as="geometry" />
        </mxCell>
        <mxCell id="2Jk9JDgMPuvfBaP24XpU-96" style="edgeStyle=orthogonalEdgeStyle;rounded=0;orthogonalLoop=1;jettySize=auto;html=1;exitX=0.5;exitY=1;exitDx=0;exitDy=0;entryX=0.5;entryY=1;entryDx=0;entryDy=0;curved=1;" parent="1" source="2Jk9JDgMPuvfBaP24XpU-10" target="2Jk9JDgMPuvfBaP24XpU-5" edge="1">
          <mxGeometry relative="1" as="geometry">
            <Array as="points">
              <mxPoint x="1020" y="1020" />
              <mxPoint x="1920" y="1020" />
            </Array>
          </mxGeometry>
        </mxCell>
        <mxCell id="2Jk9JDgMPuvfBaP24XpU-97" value="(5, ε)" style="edgeLabel;html=1;align=center;verticalAlign=middle;resizable=0;points=[];" parent="2Jk9JDgMPuvfBaP24XpU-96" vertex="1" connectable="0">
          <mxGeometry x="-0.1001" y="28" relative="1" as="geometry">
            <mxPoint as="offset" />
          </mxGeometry>
        </mxCell>
        <mxCell id="2Jk9JDgMPuvfBaP24XpU-98" style="edgeStyle=orthogonalEdgeStyle;rounded=0;orthogonalLoop=1;jettySize=auto;html=1;exitX=0.5;exitY=1;exitDx=0;exitDy=0;entryX=0.5;entryY=1;entryDx=0;entryDy=0;curved=1;" parent="1" source="2Jk9JDgMPuvfBaP24XpU-12" target="2Jk9JDgMPuvfBaP24XpU-2" edge="1">
          <mxGeometry relative="1" as="geometry">
            <Array as="points">
              <mxPoint x="870" y="960" />
              <mxPoint x="1730" y="960" />
            </Array>
          </mxGeometry>
        </mxCell>
        <mxCell id="2Jk9JDgMPuvfBaP24XpU-100" value="(5, ε)" style="edgeLabel;html=1;align=center;verticalAlign=middle;resizable=0;points=[];" parent="2Jk9JDgMPuvfBaP24XpU-98" vertex="1" connectable="0">
          <mxGeometry x="-0.1643" y="48" relative="1" as="geometry">
            <mxPoint as="offset" />
          </mxGeometry>
        </mxCell>
        <mxCell id="2Jk9JDgMPuvfBaP24XpU-106" style="edgeStyle=orthogonalEdgeStyle;rounded=0;orthogonalLoop=1;jettySize=auto;html=1;exitX=0.5;exitY=1;exitDx=0;exitDy=0;curved=1;" parent="1" source="2Jk9JDgMPuvfBaP24XpU-7" edge="1">
          <mxGeometry relative="1" as="geometry">
            <mxPoint x="1007" y="657" as="targetPoint" />
            <Array as="points">
              <mxPoint x="280" y="700" />
              <mxPoint x="1007" y="700" />
            </Array>
          </mxGeometry>
        </mxCell>
        <mxCell id="2Jk9JDgMPuvfBaP24XpU-107" value="(5, ε)" style="edgeLabel;html=1;align=center;verticalAlign=middle;resizable=0;points=[];" parent="2Jk9JDgMPuvfBaP24XpU-106" vertex="1" connectable="0">
          <mxGeometry x="-0.232" y="68" relative="1" as="geometry">
            <mxPoint as="offset" />
          </mxGeometry>
        </mxCell>
        <mxCell id="2Jk9JDgMPuvfBaP24XpU-126" style="edgeStyle=orthogonalEdgeStyle;rounded=0;orthogonalLoop=1;jettySize=auto;html=1;exitX=1;exitY=0;exitDx=0;exitDy=0;curved=1;entryX=1;entryY=0.667;entryDx=0;entryDy=0;entryPerimeter=0;" parent="1" target="2Jk9JDgMPuvfBaP24XpU-111" edge="1">
          <mxGeometry relative="1" as="geometry">
            <mxPoint x="970.0032034355963" y="993.9667965644035" as="sourcePoint" />
            <mxPoint x="980" y="1010" as="targetPoint" />
            <Array as="points">
              <mxPoint x="1040" y="994" />
              <mxPoint x="1040" y="1010" />
            </Array>
          </mxGeometry>
        </mxCell>
        <mxCell id="2Jk9JDgMPuvfBaP24XpU-127" value="(1, ε),(2, ε)&lt;div&gt;(5 , ε)&lt;/div&gt;" style="edgeLabel;html=1;align=center;verticalAlign=middle;resizable=0;points=[];" parent="2Jk9JDgMPuvfBaP24XpU-126" vertex="1" connectable="0">
          <mxGeometry x="0.0881" relative="1" as="geometry">
            <mxPoint x="26" y="-9" as="offset" />
          </mxGeometry>
        </mxCell>
        <mxCell id="2Jk9JDgMPuvfBaP24XpU-132" style="edgeStyle=orthogonalEdgeStyle;rounded=0;orthogonalLoop=1;jettySize=auto;html=1;exitX=1;exitY=1;exitDx=0;exitDy=0;entryX=0;entryY=0.5;entryDx=0;entryDy=0;curved=1;" parent="1" source="2Jk9JDgMPuvfBaP24XpU-111" target="2Jk9JDgMPuvfBaP24XpU-21" edge="1">
          <mxGeometry relative="1" as="geometry">
            <Array as="points">
              <mxPoint x="961" y="1070" />
            </Array>
          </mxGeometry>
        </mxCell>
        <mxCell id="2Jk9JDgMPuvfBaP24XpU-133" value="&lt;span style=&quot;color: rgba(0, 0, 0, 0); font-family: monospace; font-size: 0px; text-align: start; background-color: rgb(251, 251, 251);&quot;&gt;%3CmxGraphModel%3E%3Croot%3E%3CmxCell%20id%3D%220%22%2F%3E%3CmxCell%20id%3D%221%22%20parent%3D%220%22%2F%3E%3CmxCell%20id%3D%222%22%20value%3D%22(n%2C%20%CE%B5)%22%20style%3D%22edgeLabel%3Bhtml%3D1%3Balign%3Dcenter%3BverticalAlign%3Dmiddle%3Bresizable%3D0%3Bpoints%3D%5B%5D%3B%22%20vertex%3D%221%22%20connectable%3D%220%22%20parent%3D%221%22%3E%3CmxGeometry%20x%3D%22816.9999999999995%22%20y%3D%221136.9998689428282%22%20as%3D%22geometry%22%2F%3E%3C%2FmxCell%3E%3C%2Froot%3E%3C%2FmxGraphModel%3E&lt;/span&gt;" style="edgeLabel;html=1;align=center;verticalAlign=middle;resizable=0;points=[];" parent="2Jk9JDgMPuvfBaP24XpU-132" vertex="1" connectable="0">
          <mxGeometry x="0.129" y="6" relative="1" as="geometry">
            <mxPoint as="offset" />
          </mxGeometry>
        </mxCell>
        <mxCell id="2Jk9JDgMPuvfBaP24XpU-134" value="&lt;span style=&quot;color: rgba(0, 0, 0, 0); font-family: monospace; font-size: 0px; text-align: start; background-color: rgb(251, 251, 251);&quot;&gt;%3CmxGraphModel%3E%3Croot%3E%3CmxCell%20id%3D%220%22%2F%3E%3CmxCell%20id%3D%221%22%20parent%3D%220%22%2F%3E%3CmxCell%20id%3D%222%22%20value%3D%22(n%2C%20%CE%B5)%22%20style%3D%22edgeLabel%3Bhtml%3D1%3Balign%3Dcenter%3BverticalAlign%3Dmiddle%3Bresizable%3D0%3Bpoints%3D%5B%5D%3B%22%20vertex%3D%221%22%20connectable%3D%220%22%20parent%3D%221%22%3E%3CmxGeometry%20x%3D%22816.9999999999995%22%20y%3D%221136.9998689428282%22%20as%3D%22geometry%22%2F%3E%3C%2FmxCell%3E%3C%2Froot%3E%3C%2FmxGraphModel%3E&lt;/span&gt;" style="edgeLabel;html=1;align=center;verticalAlign=middle;resizable=0;points=[];" parent="2Jk9JDgMPuvfBaP24XpU-132" vertex="1" connectable="0">
          <mxGeometry x="0.0809" y="5" relative="1" as="geometry">
            <mxPoint as="offset" />
          </mxGeometry>
        </mxCell>
        <mxCell id="2Jk9JDgMPuvfBaP24XpU-135" value="(nt, ε)" style="edgeLabel;html=1;align=center;verticalAlign=middle;resizable=0;points=[];" parent="2Jk9JDgMPuvfBaP24XpU-132" vertex="1" connectable="0">
          <mxGeometry x="0.0648" y="6" relative="1" as="geometry">
            <mxPoint as="offset" />
          </mxGeometry>
        </mxCell>
        <mxCell id="2Jk9JDgMPuvfBaP24XpU-111" value="&amp;lt;a1&amp;gt;" style="ellipse;whiteSpace=wrap;html=1;" parent="1" vertex="1">
          <mxGeometry x="910" y="970" width="60" height="60" as="geometry" />
        </mxCell>
        <mxCell id="2Jk9JDgMPuvfBaP24XpU-128" value="&amp;lt;af&amp;gt;" style="ellipse;shape=doubleEllipse;whiteSpace=wrap;html=1;aspect=fixed;" parent="1" vertex="1">
          <mxGeometry x="1060" y="1160" width="80" height="80" as="geometry" />
        </mxCell>
        <mxCell id="2Jk9JDgMPuvfBaP24XpU-129" style="edgeStyle=orthogonalEdgeStyle;rounded=0;orthogonalLoop=1;jettySize=auto;html=1;entryX=0.034;entryY=0.288;entryDx=0;entryDy=0;entryPerimeter=0;exitX=0.65;exitY=0.959;exitDx=0;exitDy=0;exitPerimeter=0;curved=1;" parent="1" source="2Jk9JDgMPuvfBaP24XpU-111" target="2Jk9JDgMPuvfBaP24XpU-128" edge="1">
          <mxGeometry relative="1" as="geometry">
            <mxPoint x="950" y="1030" as="sourcePoint" />
            <Array as="points">
              <mxPoint x="950" y="1028" />
              <mxPoint x="950" y="1183" />
            </Array>
          </mxGeometry>
        </mxCell>
        <mxCell id="2Jk9JDgMPuvfBaP24XpU-131" value="(n, ε)" style="edgeLabel;html=1;align=center;verticalAlign=middle;resizable=0;points=[];" parent="2Jk9JDgMPuvfBaP24XpU-129" vertex="1" connectable="0">
          <mxGeometry x="-0.1789" y="7" relative="1" as="geometry">
            <mxPoint as="offset" />
          </mxGeometry>
        </mxCell>
        <mxCell id="2Jk9JDgMPuvfBaP24XpU-136" style="edgeStyle=orthogonalEdgeStyle;rounded=0;orthogonalLoop=1;jettySize=auto;html=1;curved=1;exitX=0.406;exitY=0.026;exitDx=0;exitDy=0;entryX=0.833;entryY=0.167;entryDx=0;entryDy=0;entryPerimeter=0;exitPerimeter=0;" parent="1" source="2Jk9JDgMPuvfBaP24XpU-22" target="2Jk9JDgMPuvfBaP24XpU-22" edge="1">
          <mxGeometry relative="1" as="geometry">
            <mxPoint x="1349.97" y="708" as="sourcePoint" />
            <mxPoint x="1389.97" y="710" as="targetPoint" />
            <Array as="points">
              <mxPoint x="1364" y="700" />
              <mxPoint x="1364" y="700" />
              <mxPoint x="1364" y="643" />
              <mxPoint x="1390" y="643" />
            </Array>
          </mxGeometry>
        </mxCell>
        <mxCell id="2Jk9JDgMPuvfBaP24XpU-138" value="(a, ε),(b, ε)&lt;div&gt;(c, ε)&lt;/div&gt;" style="edgeLabel;html=1;align=center;verticalAlign=middle;resizable=0;points=[];" parent="2Jk9JDgMPuvfBaP24XpU-136" vertex="1" connectable="0">
          <mxGeometry x="-0.0345" y="-1" relative="1" as="geometry">
            <mxPoint x="3" y="-14" as="offset" />
          </mxGeometry>
        </mxCell>
        <mxCell id="2Jk9JDgMPuvfBaP24XpU-139" style="edgeStyle=orthogonalEdgeStyle;rounded=0;orthogonalLoop=1;jettySize=auto;html=1;curved=1;exitX=0.293;exitY=0.05;exitDx=0;exitDy=0;entryX=0.667;entryY=0;entryDx=0;entryDy=0;entryPerimeter=0;exitPerimeter=0;" parent="1" source="2Jk9JDgMPuvfBaP24XpU-1" target="2Jk9JDgMPuvfBaP24XpU-1" edge="1">
          <mxGeometry relative="1" as="geometry">
            <mxPoint x="1529.48" y="779" as="sourcePoint" />
            <mxPoint x="1570.48" y="780" as="targetPoint" />
            <Array as="points">
              <mxPoint x="1540" y="783" />
              <mxPoint x="1540" y="720" />
              <mxPoint x="1560" y="720" />
            </Array>
          </mxGeometry>
        </mxCell>
        <mxCell id="2Jk9JDgMPuvfBaP24XpU-140" value="(a, ε),(b, ε)&lt;div&gt;(c, ε)&lt;/div&gt;" style="edgeLabel;html=1;align=center;verticalAlign=middle;resizable=0;points=[];" parent="2Jk9JDgMPuvfBaP24XpU-139" vertex="1" connectable="0">
          <mxGeometry x="-0.0345" y="-1" relative="1" as="geometry">
            <mxPoint x="3" y="-14" as="offset" />
          </mxGeometry>
        </mxCell>
        <mxCell id="2Jk9JDgMPuvfBaP24XpU-142" style="edgeStyle=orthogonalEdgeStyle;rounded=0;orthogonalLoop=1;jettySize=auto;html=1;curved=1;entryX=0.84;entryY=0.108;entryDx=0;entryDy=0;entryPerimeter=0;exitX=0.337;exitY=0.038;exitDx=0;exitDy=0;exitPerimeter=0;" parent="1" source="2Jk9JDgMPuvfBaP24XpU-2" target="2Jk9JDgMPuvfBaP24XpU-2" edge="1">
          <mxGeometry relative="1" as="geometry">
            <mxPoint x="1709" y="850" as="sourcePoint" />
            <mxPoint x="1751" y="850" as="targetPoint" />
            <Array as="points">
              <mxPoint x="1720" y="764" />
              <mxPoint x="1750" y="764" />
            </Array>
          </mxGeometry>
        </mxCell>
        <mxCell id="2Jk9JDgMPuvfBaP24XpU-143" value="(a, ε),(b, ε)&lt;div&gt;(c, ε)&lt;/div&gt;" style="edgeLabel;html=1;align=center;verticalAlign=middle;resizable=0;points=[];" parent="2Jk9JDgMPuvfBaP24XpU-142" vertex="1" connectable="0">
          <mxGeometry x="-0.0345" y="-1" relative="1" as="geometry">
            <mxPoint x="3" y="-14" as="offset" />
          </mxGeometry>
        </mxCell>
        <mxCell id="2Jk9JDgMPuvfBaP24XpU-144" style="edgeStyle=orthogonalEdgeStyle;rounded=0;orthogonalLoop=1;jettySize=auto;html=1;curved=1;exitX=0.187;exitY=0.105;exitDx=0;exitDy=0;exitPerimeter=0;" parent="1" source="2Jk9JDgMPuvfBaP24XpU-5" target="2Jk9JDgMPuvfBaP24XpU-5" edge="1">
          <mxGeometry relative="1" as="geometry">
            <mxPoint x="1899.99" y="900" as="sourcePoint" />
            <mxPoint x="1939.99" y="898" as="targetPoint" />
            <Array as="points">
              <mxPoint x="1900" y="906" />
              <mxPoint x="1900" y="806" />
              <mxPoint x="1940" y="806" />
            </Array>
          </mxGeometry>
        </mxCell>
        <mxCell id="2Jk9JDgMPuvfBaP24XpU-145" value="(a, ε),(b, ε)&lt;div&gt;(c, ε)&lt;/div&gt;" style="edgeLabel;html=1;align=center;verticalAlign=middle;resizable=0;points=[];" parent="2Jk9JDgMPuvfBaP24XpU-144" vertex="1" connectable="0">
          <mxGeometry x="-0.0345" y="-1" relative="1" as="geometry">
            <mxPoint x="3" y="-14" as="offset" />
          </mxGeometry>
        </mxCell>
        <mxCell id="2Jk9JDgMPuvfBaP24XpU-148" style="edgeStyle=orthogonalEdgeStyle;rounded=0;orthogonalLoop=1;jettySize=auto;html=1;exitX=0;exitY=1;exitDx=0;exitDy=0;entryX=0.5;entryY=0;entryDx=0;entryDy=0;curved=1;" parent="1" source="2Jk9JDgMPuvfBaP24XpU-6" target="2Jk9JDgMPuvfBaP24XpU-111" edge="1">
          <mxGeometry relative="1" as="geometry" />
        </mxCell>
        <mxCell id="2Jk9JDgMPuvfBaP24XpU-150" value="(00, a)" style="edgeLabel;html=1;align=center;verticalAlign=middle;resizable=0;points=[];" parent="2Jk9JDgMPuvfBaP24XpU-148" vertex="1" connectable="0">
          <mxGeometry x="0.8433" y="-2" relative="1" as="geometry">
            <mxPoint x="6" y="-52" as="offset" />
          </mxGeometry>
        </mxCell>
        <mxCell id="2Jk9JDgMPuvfBaP24XpU-155" style="edgeStyle=orthogonalEdgeStyle;rounded=0;orthogonalLoop=1;jettySize=auto;html=1;exitX=0;exitY=1;exitDx=0;exitDy=0;entryX=0.722;entryY=0.052;entryDx=0;entryDy=0;entryPerimeter=0;curved=1;" parent="1" source="2Jk9JDgMPuvfBaP24XpU-2" target="2Jk9JDgMPuvfBaP24XpU-111" edge="1">
          <mxGeometry relative="1" as="geometry" />
        </mxCell>
        <mxCell id="2Jk9JDgMPuvfBaP24XpU-156" value="(00, a)" style="edgeLabel;html=1;align=center;verticalAlign=middle;resizable=0;points=[];" parent="2Jk9JDgMPuvfBaP24XpU-155" vertex="1" connectable="0">
          <mxGeometry x="-0.66" y="1" relative="1" as="geometry">
            <mxPoint x="1" as="offset" />
          </mxGeometry>
        </mxCell>
        <mxCell id="2Jk9JDgMPuvfBaP24XpU-157" style="edgeStyle=orthogonalEdgeStyle;rounded=0;orthogonalLoop=1;jettySize=auto;html=1;exitX=0;exitY=1;exitDx=0;exitDy=0;entryX=0.844;entryY=0.124;entryDx=0;entryDy=0;entryPerimeter=0;curved=1;" parent="1" source="2Jk9JDgMPuvfBaP24XpU-5" target="2Jk9JDgMPuvfBaP24XpU-111" edge="1">
          <mxGeometry relative="1" as="geometry">
            <Array as="points">
              <mxPoint x="1900" y="951" />
              <mxPoint x="1900" y="977" />
              <mxPoint x="969" y="977" />
            </Array>
          </mxGeometry>
        </mxCell>
        <mxCell id="2Jk9JDgMPuvfBaP24XpU-158" value="(00, a)" style="edgeLabel;html=1;align=center;verticalAlign=middle;resizable=0;points=[];" parent="2Jk9JDgMPuvfBaP24XpU-157" vertex="1" connectable="0">
          <mxGeometry x="0.0947" y="-5" relative="1" as="geometry">
            <mxPoint as="offset" />
          </mxGeometry>
        </mxCell>
        <mxCell id="2Jk9JDgMPuvfBaP24XpU-185" style="edgeStyle=orthogonalEdgeStyle;rounded=0;orthogonalLoop=1;jettySize=auto;html=1;exitX=1.004;exitY=0.365;exitDx=0;exitDy=0;entryX=0;entryY=0.5;entryDx=0;entryDy=0;curved=1;exitPerimeter=0;" parent="1" source="2Jk9JDgMPuvfBaP24XpU-161" target="2Jk9JDgMPuvfBaP24XpU-184" edge="1">
          <mxGeometry relative="1" as="geometry">
            <Array as="points">
              <mxPoint x="1390" y="402" />
              <mxPoint x="1390" y="330" />
            </Array>
          </mxGeometry>
        </mxCell>
        <mxCell id="2Jk9JDgMPuvfBaP24XpU-187" value="&lt;span style=&quot;color: rgba(0, 0, 0, 0); font-family: monospace; font-size: 0px; text-align: start; background-color: rgb(251, 251, 251);&quot;&gt;%3CmxGraphModel%3E%3Croot%3E%3CmxCell%20id%3D%220%22%2F%3E%3CmxCell%20id%3D%221%22%20parent%3D%220%22%2F%3E%3CmxCell%20id%3D%222%22%20value%3D%22(n%2C%20%CE%B5)%22%20style%3D%22edgeLabel%3Bhtml%3D1%3Balign%3Dcenter%3BverticalAlign%3Dmiddle%3Bresizable%3D0%3Bpoints%3D%5B%5D%3B%22%20vertex%3D%221%22%20connectable%3D%220%22%20parent%3D%221%22%3E%3CmxGeometry%20x%3D%22817%22%20y%3D%221137.4992003197442%22%20as%3D%22geometry%22%2F%3E%3C%2FmxCell%3E%3C%2Froot%3E%3C%2FmxGraphModel%3E&lt;/span&gt;" style="edgeLabel;html=1;align=center;verticalAlign=middle;resizable=0;points=[];" parent="2Jk9JDgMPuvfBaP24XpU-185" vertex="1" connectable="0">
          <mxGeometry x="0.1919" y="5" relative="1" as="geometry">
            <mxPoint as="offset" />
          </mxGeometry>
        </mxCell>
        <mxCell id="2Jk9JDgMPuvfBaP24XpU-188" value="(n, ε)" style="edgeLabel;html=1;align=center;verticalAlign=middle;resizable=0;points=[];" parent="2Jk9JDgMPuvfBaP24XpU-185" vertex="1" connectable="0">
          <mxGeometry x="-0.1059" y="14" relative="1" as="geometry">
            <mxPoint x="-50" y="14" as="offset" />
          </mxGeometry>
        </mxCell>
        <mxCell id="2Jk9JDgMPuvfBaP24XpU-186" style="edgeStyle=orthogonalEdgeStyle;rounded=0;orthogonalLoop=1;jettySize=auto;html=1;exitX=1;exitY=0;exitDx=0;exitDy=0;entryX=0;entryY=0.5;entryDx=0;entryDy=0;curved=1;" parent="1" source="2Jk9JDgMPuvfBaP24XpU-161" target="2Jk9JDgMPuvfBaP24XpU-183" edge="1">
          <mxGeometry relative="1" as="geometry" />
        </mxCell>
        <mxCell id="2Jk9JDgMPuvfBaP24XpU-189" value="(nt, ε)" style="edgeLabel;html=1;align=center;verticalAlign=middle;resizable=0;points=[];" parent="2Jk9JDgMPuvfBaP24XpU-186" vertex="1" connectable="0">
          <mxGeometry x="0.0097" y="-2" relative="1" as="geometry">
            <mxPoint as="offset" />
          </mxGeometry>
        </mxCell>
        <mxCell id="2Jk9JDgMPuvfBaP24XpU-161" value="&amp;lt;b1&amp;gt;" style="ellipse;whiteSpace=wrap;html=1;" parent="1" vertex="1">
          <mxGeometry x="1220" y="380" width="60" height="60" as="geometry" />
        </mxCell>
        <mxCell id="2Jk9JDgMPuvfBaP24XpU-164" style="edgeStyle=orthogonalEdgeStyle;rounded=0;orthogonalLoop=1;jettySize=auto;html=1;exitX=1;exitY=0;exitDx=0;exitDy=0;entryX=0;entryY=0.333;entryDx=0;entryDy=0;entryPerimeter=0;curved=1;" parent="1" source="2Jk9JDgMPuvfBaP24XpU-12" target="2Jk9JDgMPuvfBaP24XpU-161" edge="1">
          <mxGeometry relative="1" as="geometry">
            <Array as="points">
              <mxPoint x="910" y="559" />
              <mxPoint x="910" y="400" />
            </Array>
          </mxGeometry>
        </mxCell>
        <mxCell id="2Jk9JDgMPuvfBaP24XpU-165" value="(01, b)" style="edgeLabel;html=1;align=center;verticalAlign=middle;resizable=0;points=[];" parent="2Jk9JDgMPuvfBaP24XpU-164" vertex="1" connectable="0">
          <mxGeometry x="0.2135" y="-15" relative="1" as="geometry">
            <mxPoint as="offset" />
          </mxGeometry>
        </mxCell>
        <mxCell id="2Jk9JDgMPuvfBaP24XpU-170" style="edgeStyle=orthogonalEdgeStyle;rounded=0;orthogonalLoop=1;jettySize=auto;html=1;exitX=0.303;exitY=0.96;exitDx=0;exitDy=0;entryX=-0.003;entryY=0.7;entryDx=0;entryDy=0;entryPerimeter=0;exitPerimeter=0;curved=1;" parent="1" source="2Jk9JDgMPuvfBaP24XpU-7" target="2Jk9JDgMPuvfBaP24XpU-111" edge="1">
          <mxGeometry relative="1" as="geometry">
            <Array as="points">
              <mxPoint x="268" y="660" />
              <mxPoint x="270" y="660" />
              <mxPoint x="270" y="1012" />
            </Array>
          </mxGeometry>
        </mxCell>
        <mxCell id="2Jk9JDgMPuvfBaP24XpU-171" value="(5,a)" style="edgeLabel;html=1;align=center;verticalAlign=middle;resizable=0;points=[];" parent="2Jk9JDgMPuvfBaP24XpU-170" vertex="1" connectable="0">
          <mxGeometry x="0.1332" y="65" relative="1" as="geometry">
            <mxPoint x="13" as="offset" />
          </mxGeometry>
        </mxCell>
        <mxCell id="2Jk9JDgMPuvfBaP24XpU-172" style="edgeStyle=orthogonalEdgeStyle;rounded=0;orthogonalLoop=1;jettySize=auto;html=1;entryX=-0.02;entryY=0.618;entryDx=0;entryDy=0;entryPerimeter=0;curved=1;exitX=0.795;exitY=0.09;exitDx=0;exitDy=0;exitPerimeter=0;" parent="1" source="2Jk9JDgMPuvfBaP24XpU-9" target="2Jk9JDgMPuvfBaP24XpU-161" edge="1">
          <mxGeometry relative="1" as="geometry">
            <mxPoint x="582" y="440" as="sourcePoint" />
            <Array as="points">
              <mxPoint x="588" y="430" />
              <mxPoint x="1090" y="430" />
              <mxPoint x="1090" y="417" />
            </Array>
          </mxGeometry>
        </mxCell>
        <mxCell id="2Jk9JDgMPuvfBaP24XpU-173" value="(05,b)" style="edgeLabel;html=1;align=center;verticalAlign=middle;resizable=0;points=[];" parent="2Jk9JDgMPuvfBaP24XpU-172" vertex="1" connectable="0">
          <mxGeometry x="-0.4573" y="-3" relative="1" as="geometry">
            <mxPoint x="3" y="-3" as="offset" />
          </mxGeometry>
        </mxCell>
        <mxCell id="2Jk9JDgMPuvfBaP24XpU-183" value="&amp;lt;bf&amp;gt;" style="ellipse;shape=doubleEllipse;whiteSpace=wrap;html=1;aspect=fixed;" parent="1" vertex="1">
          <mxGeometry x="1330" y="230" width="80" height="80" as="geometry" />
        </mxCell>
        <mxCell id="2Jk9JDgMPuvfBaP24XpU-184" value="&amp;lt;bft&amp;gt;" style="ellipse;shape=doubleEllipse;whiteSpace=wrap;html=1;aspect=fixed;" parent="1" vertex="1">
          <mxGeometry x="1430" y="290" width="80" height="80" as="geometry" />
        </mxCell>
        <mxCell id="pM1H2r0tlZUUlJDLP7UV-3" style="edgeStyle=orthogonalEdgeStyle;rounded=0;orthogonalLoop=1;jettySize=auto;html=1;exitX=0;exitY=0;exitDx=0;exitDy=0;curved=1;" parent="1" source="2Jk9JDgMPuvfBaP24XpU-22" edge="1">
          <mxGeometry relative="1" as="geometry">
            <mxPoint x="1240" y="440" as="targetPoint" />
            <Array as="points">
              <mxPoint x="1340" y="719" />
              <mxPoint x="1340" y="480" />
              <mxPoint x="1240" y="480" />
            </Array>
          </mxGeometry>
        </mxCell>
        <mxCell id="pM1H2r0tlZUUlJDLP7UV-5" value="(00, b)" style="edgeLabel;html=1;align=center;verticalAlign=middle;resizable=0;points=[];" parent="pM1H2r0tlZUUlJDLP7UV-3" vertex="1" connectable="0">
          <mxGeometry x="0.3284" y="3" relative="1" as="geometry">
            <mxPoint as="offset" />
          </mxGeometry>
        </mxCell>
        <mxCell id="pM1H2r0tlZUUlJDLP7UV-8" style="edgeStyle=orthogonalEdgeStyle;rounded=0;orthogonalLoop=1;jettySize=auto;html=1;exitX=-0.03;exitY=0.352;exitDx=0;exitDy=0;entryX=1;entryY=1;entryDx=0;entryDy=0;curved=1;exitPerimeter=0;" parent="1" source="2Jk9JDgMPuvfBaP24XpU-2" target="2Jk9JDgMPuvfBaP24XpU-161" edge="1">
          <mxGeometry relative="1" as="geometry">
            <Array as="points">
              <mxPoint x="1698" y="870" />
              <mxPoint x="1640" y="870" />
              <mxPoint x="1640" y="431" />
            </Array>
          </mxGeometry>
        </mxCell>
        <mxCell id="pM1H2r0tlZUUlJDLP7UV-9" value="(00, b)" style="edgeLabel;html=1;align=center;verticalAlign=middle;resizable=0;points=[];" parent="pM1H2r0tlZUUlJDLP7UV-8" vertex="1" connectable="0">
          <mxGeometry x="-0.1271" y="-1" relative="1" as="geometry">
            <mxPoint x="-21" as="offset" />
          </mxGeometry>
        </mxCell>
        <mxCell id="8i7HvSjvM84CX9ySZkmt-4" style="edgeStyle=orthogonalEdgeStyle;rounded=0;orthogonalLoop=1;jettySize=auto;html=1;exitX=1;exitY=0;exitDx=0;exitDy=0;entryX=0;entryY=0.5;entryDx=0;entryDy=0;curved=1;" edge="1" parent="1" source="8i7HvSjvM84CX9ySZkmt-1" target="8i7HvSjvM84CX9ySZkmt-2">
          <mxGeometry relative="1" as="geometry">
            <Array as="points">
              <mxPoint x="1730" y="189" />
              <mxPoint x="1730" y="80" />
            </Array>
          </mxGeometry>
        </mxCell>
        <mxCell id="8i7HvSjvM84CX9ySZkmt-6" value="(nt, ε)" style="edgeLabel;html=1;align=center;verticalAlign=middle;resizable=0;points=[];" vertex="1" connectable="0" parent="8i7HvSjvM84CX9ySZkmt-4">
          <mxGeometry x="-0.1086" y="-9" relative="1" as="geometry">
            <mxPoint as="offset" />
          </mxGeometry>
        </mxCell>
        <mxCell id="8i7HvSjvM84CX9ySZkmt-1" value="&amp;lt;c1&amp;gt;" style="ellipse;whiteSpace=wrap;html=1;" vertex="1" parent="1">
          <mxGeometry x="1680" y="180" width="60" height="60" as="geometry" />
        </mxCell>
        <mxCell id="8i7HvSjvM84CX9ySZkmt-2" value="&amp;lt;bf&amp;gt;" style="ellipse;shape=doubleEllipse;whiteSpace=wrap;html=1;aspect=fixed;" vertex="1" parent="1">
          <mxGeometry x="1810" y="40" width="80" height="80" as="geometry" />
        </mxCell>
        <mxCell id="8i7HvSjvM84CX9ySZkmt-3" value="&amp;lt;bf&amp;gt;" style="ellipse;shape=doubleEllipse;whiteSpace=wrap;html=1;aspect=fixed;" vertex="1" parent="1">
          <mxGeometry x="1930" y="90" width="80" height="80" as="geometry" />
        </mxCell>
        <mxCell id="8i7HvSjvM84CX9ySZkmt-5" style="edgeStyle=orthogonalEdgeStyle;rounded=0;orthogonalLoop=1;jettySize=auto;html=1;exitX=1;exitY=0.455;exitDx=0;exitDy=0;entryX=0.07;entryY=0.697;entryDx=0;entryDy=0;entryPerimeter=0;curved=1;exitPerimeter=0;" edge="1" parent="1" source="8i7HvSjvM84CX9ySZkmt-1" target="8i7HvSjvM84CX9ySZkmt-3">
          <mxGeometry relative="1" as="geometry">
            <Array as="points">
              <mxPoint x="1740" y="186" />
              <mxPoint x="1916" y="186" />
            </Array>
          </mxGeometry>
        </mxCell>
        <mxCell id="8i7HvSjvM84CX9ySZkmt-7" value="(n, ε)" style="edgeLabel;html=1;align=center;verticalAlign=middle;resizable=0;points=[];" vertex="1" connectable="0" parent="8i7HvSjvM84CX9ySZkmt-5">
          <mxGeometry x="-0.0648" y="1" relative="1" as="geometry">
            <mxPoint as="offset" />
          </mxGeometry>
        </mxCell>
        <mxCell id="8i7HvSjvM84CX9ySZkmt-12" value="" style="endArrow=classic;html=1;rounded=0;exitX=0.722;exitY=0.035;exitDx=0;exitDy=0;exitPerimeter=0;entryX=0;entryY=0;entryDx=0;entryDy=0;curved=1;" edge="1" parent="1" source="2Jk9JDgMPuvfBaP24XpU-9" target="8i7HvSjvM84CX9ySZkmt-1">
          <mxGeometry width="50" height="50" relative="1" as="geometry">
            <mxPoint x="600" y="435" as="sourcePoint" />
            <mxPoint x="1310" y="120" as="targetPoint" />
            <Array as="points">
              <mxPoint x="580" y="240" />
              <mxPoint x="760" y="90" />
              <mxPoint x="1420" y="80" />
            </Array>
          </mxGeometry>
        </mxCell>
        <mxCell id="8i7HvSjvM84CX9ySZkmt-13" value="(5,c)" style="edgeLabel;html=1;align=center;verticalAlign=middle;resizable=0;points=[];" vertex="1" connectable="0" parent="8i7HvSjvM84CX9ySZkmt-12">
          <mxGeometry x="-0.0161" y="-4" relative="1" as="geometry">
            <mxPoint as="offset" />
          </mxGeometry>
        </mxCell>
        <mxCell id="8i7HvSjvM84CX9ySZkmt-15" value="" style="endArrow=classic;html=1;rounded=0;entryX=0.004;entryY=0.36;entryDx=0;entryDy=0;exitX=0;exitY=0;exitDx=0;exitDy=0;curved=1;entryPerimeter=0;" edge="1" parent="1" source="2Jk9JDgMPuvfBaP24XpU-11" target="8i7HvSjvM84CX9ySZkmt-1">
          <mxGeometry width="50" height="50" relative="1" as="geometry">
            <mxPoint x="960" y="360" as="sourcePoint" />
            <mxPoint x="1010" y="310" as="targetPoint" />
            <Array as="points">
              <mxPoint x="610" y="140" />
              <mxPoint x="1390" y="100" />
            </Array>
          </mxGeometry>
        </mxCell>
        <mxCell id="8i7HvSjvM84CX9ySZkmt-17" value="(5,c)" style="edgeLabel;html=1;align=center;verticalAlign=middle;resizable=0;points=[];" vertex="1" connectable="0" parent="8i7HvSjvM84CX9ySZkmt-15">
          <mxGeometry x="0.0432" y="-3" relative="1" as="geometry">
            <mxPoint x="1" as="offset" />
          </mxGeometry>
        </mxCell>
        <mxCell id="8i7HvSjvM84CX9ySZkmt-24" value="" style="endArrow=classic;html=1;rounded=0;exitX=0;exitY=0;exitDx=0;exitDy=0;entryX=0.082;entryY=0.753;entryDx=0;entryDy=0;curved=1;entryPerimeter=0;" edge="1" parent="1" source="2Jk9JDgMPuvfBaP24XpU-10" target="8i7HvSjvM84CX9ySZkmt-1">
          <mxGeometry width="50" height="50" relative="1" as="geometry">
            <mxPoint x="960" y="580" as="sourcePoint" />
            <mxPoint x="1420" y="160" as="targetPoint" />
            <Array as="points">
              <mxPoint x="970" y="430" />
              <mxPoint x="910" y="210" />
              <mxPoint x="1240" y="170" />
              <mxPoint x="1360" y="180" />
            </Array>
          </mxGeometry>
        </mxCell>
        <mxCell id="8i7HvSjvM84CX9ySZkmt-27" value="(1,c)" style="edgeLabel;html=1;align=center;verticalAlign=middle;resizable=0;points=[];" vertex="1" connectable="0" parent="8i7HvSjvM84CX9ySZkmt-24">
          <mxGeometry x="-0.0776" y="-1" relative="1" as="geometry">
            <mxPoint x="-1" as="offset" />
          </mxGeometry>
        </mxCell>
        <mxCell id="8i7HvSjvM84CX9ySZkmt-29" value="" style="endArrow=classic;html=1;rounded=0;exitX=0;exitY=0;exitDx=0;exitDy=0;entryX=0.208;entryY=0.907;entryDx=0;entryDy=0;curved=1;entryPerimeter=0;" edge="1" parent="1" source="2Jk9JDgMPuvfBaP24XpU-6" target="8i7HvSjvM84CX9ySZkmt-1">
          <mxGeometry width="50" height="50" relative="1" as="geometry">
            <mxPoint x="1130" y="630" as="sourcePoint" />
            <mxPoint x="1090" y="210" as="targetPoint" />
            <Array as="points">
              <mxPoint x="1140" y="560" />
              <mxPoint x="1140" y="450" />
              <mxPoint x="1170" y="310" />
              <mxPoint x="1230" y="230" />
              <mxPoint x="1380" y="200" />
            </Array>
          </mxGeometry>
        </mxCell>
        <mxCell id="8i7HvSjvM84CX9ySZkmt-30" value="(00,c)" style="edgeLabel;html=1;align=center;verticalAlign=middle;resizable=0;points=[];" vertex="1" connectable="0" parent="8i7HvSjvM84CX9ySZkmt-29">
          <mxGeometry x="0.3776" y="-11" relative="1" as="geometry">
            <mxPoint x="-160" y="17" as="offset" />
          </mxGeometry>
        </mxCell>
        <mxCell id="8i7HvSjvM84CX9ySZkmt-31" value="" style="endArrow=classic;html=1;rounded=0;exitX=0.183;exitY=0.06;exitDx=0;exitDy=0;exitPerimeter=0;entryX=0.008;entryY=0.631;entryDx=0;entryDy=0;entryPerimeter=0;curved=1;" edge="1" parent="1" source="2Jk9JDgMPuvfBaP24XpU-12" target="8i7HvSjvM84CX9ySZkmt-1">
          <mxGeometry width="50" height="50" relative="1" as="geometry">
            <mxPoint x="810" y="340" as="sourcePoint" />
            <mxPoint x="850" y="180" as="targetPoint" />
            <Array as="points">
              <mxPoint x="800" y="220" />
              <mxPoint x="1000" y="150" />
              <mxPoint x="1220" y="140" />
              <mxPoint x="1460" y="180" />
            </Array>
          </mxGeometry>
        </mxCell>
        <mxCell id="8i7HvSjvM84CX9ySZkmt-32" value="(2,c)" style="edgeLabel;html=1;align=center;verticalAlign=middle;resizable=0;points=[];" vertex="1" connectable="0" parent="8i7HvSjvM84CX9ySZkmt-31">
          <mxGeometry x="-0.0546" y="-5" relative="1" as="geometry">
            <mxPoint as="offset" />
          </mxGeometry>
        </mxCell>
        <mxCell id="8i7HvSjvM84CX9ySZkmt-38" value="" style="endArrow=classic;html=1;rounded=0;exitX=0.99;exitY=0.32;exitDx=0;exitDy=0;exitPerimeter=0;entryX=0.242;entryY=0.957;entryDx=0;entryDy=0;entryPerimeter=0;curved=1;" edge="1" parent="1" source="2Jk9JDgMPuvfBaP24XpU-22" target="8i7HvSjvM84CX9ySZkmt-1">
          <mxGeometry width="50" height="50" relative="1" as="geometry">
            <mxPoint x="1560" y="340" as="sourcePoint" />
            <mxPoint x="1610" y="290" as="targetPoint" />
            <Array as="points">
              <mxPoint x="1510" y="460" />
            </Array>
          </mxGeometry>
        </mxCell>
        <mxCell id="8i7HvSjvM84CX9ySZkmt-39" value="(00,c)" style="edgeLabel;html=1;align=center;verticalAlign=middle;resizable=0;points=[];" vertex="1" connectable="0" parent="8i7HvSjvM84CX9ySZkmt-38">
          <mxGeometry x="0.3761" y="-11" relative="1" as="geometry">
            <mxPoint as="offset" />
          </mxGeometry>
        </mxCell>
        <mxCell id="8i7HvSjvM84CX9ySZkmt-41" value="" style="endArrow=classic;html=1;rounded=0;exitX=0.789;exitY=0.113;exitDx=0;exitDy=0;exitPerimeter=0;entryX=0.346;entryY=0.996;entryDx=0;entryDy=0;curved=1;entryPerimeter=0;" edge="1" parent="1" source="2Jk9JDgMPuvfBaP24XpU-1" target="8i7HvSjvM84CX9ySZkmt-1">
          <mxGeometry width="50" height="50" relative="1" as="geometry">
            <mxPoint x="1680" y="450" as="sourcePoint" />
            <mxPoint x="1730" y="400" as="targetPoint" />
            <Array as="points">
              <mxPoint x="1710" y="530" />
            </Array>
          </mxGeometry>
        </mxCell>
        <mxCell id="8i7HvSjvM84CX9ySZkmt-45" value="(00,c)" style="edgeLabel;html=1;align=center;verticalAlign=middle;resizable=0;points=[];" vertex="1" connectable="0" parent="8i7HvSjvM84CX9ySZkmt-41">
          <mxGeometry x="0.4711" y="11" relative="1" as="geometry">
            <mxPoint as="offset" />
          </mxGeometry>
        </mxCell>
        <mxCell id="8i7HvSjvM84CX9ySZkmt-43" value="" style="endArrow=classic;html=1;rounded=0;exitX=0.944;exitY=0.306;exitDx=0;exitDy=0;exitPerimeter=0;entryX=0.5;entryY=1;entryDx=0;entryDy=0;curved=1;" edge="1" parent="1" source="2Jk9JDgMPuvfBaP24XpU-2" target="8i7HvSjvM84CX9ySZkmt-1">
          <mxGeometry width="50" height="50" relative="1" as="geometry">
            <mxPoint x="1770" y="510" as="sourcePoint" />
            <mxPoint x="1820" y="460" as="targetPoint" />
            <Array as="points">
              <mxPoint x="1840" y="550" />
              <mxPoint x="1780" y="380" />
            </Array>
          </mxGeometry>
        </mxCell>
        <mxCell id="8i7HvSjvM84CX9ySZkmt-46" value="(00,c)" style="edgeLabel;html=1;align=center;verticalAlign=middle;resizable=0;points=[];" vertex="1" connectable="0" parent="8i7HvSjvM84CX9ySZkmt-43">
          <mxGeometry x="0.48" relative="1" as="geometry">
            <mxPoint as="offset" />
          </mxGeometry>
        </mxCell>
      </root>
    </mxGraphModel>
  </diagram>
</mxfile>
